  0
SECTION
  2
HEADER
  9
$ACADVER
  1
AC1015
  9
$ACADMAINTVER
 70
     6
  9
$DWGCODEPAGE
  3
ANSI_1252
  9
$INSBASE
 10
0.0
 20
0.0
 30
0.0
  9
$EXTMIN
 10
-408.6235639383
 20
59.2169475018
 30
0.0
  9
$EXTMAX
 10
383.1792123764
 20
486.2169475018
 30
0.0
  9
$LIMMIN
 10
0.0
 20
0.0
  9
$LIMMAX
 10
420.0
 20
297.0
  9
$ORTHOMODE
 70
     0
  9
$REGENMODE
 70
     1
  9
$FILLMODE
 70
     1
  9
$QTEXTMODE
 70
     0
  9
$MIRRTEXT
 70
     1
  9
$LTSCALE
 40
1.0
  9
$ATTMODE
 70
     1
  9
$TEXTSIZE
 40
3.5
  9
$TRACEWID
 40
1.0
  9
$TEXTSTYLE
  7
Standard
  9
$CLAYER
  8
0
  9
$CELTYPE
  6
ByLayer
  9
$CECOLOR
 62
   256
  9
$CELTSCALE
 40
1.0
  9
$DISPSILH
 70
     0
  9
$DIMSCALE
 40
1.0
  9
$DIMASZ
 40
3.302
  9
$DIMEXO
 40
1.0
  9
$DIMDLI
 40
3.75
  9
$DIMRND
 40
0.0
  9
$DIMDLE
 40
0.0
  9
$DIMEXE
 40
1.0
  9
$DIMTP
 40
0.0
  9
$DIMTM
 40
0.0
  9
$DIMTXT
 40
3.5
  9
$DIMCEN
 40
2.5
  9
$DIMTSZ
 40
0.0
  9
$DIMTOL
 70
     0
  9
$DIMLIM
 70
     0
  9
$DIMTIH
 70
     1
  9
$DIMTOH
 70
     1
  9
$DIMSE1
 70
     0
  9
$DIMSE2
 70
     0
  9
$DIMTAD
 70
     1
  9
$DIMZIN
 70
     0
  9
$DIMBLK
  1

  9
$DIMASO
 70
     1
  9
$DIMSHO
 70
     1
  9
$DIMPOST
  1

  9
$DIMAPOST
  1

  9
$DIMALT
 70
     0
  9
$DIMALTD
 70
     3
  9
$DIMALTF
 40
0.0393700787
  9
$DIMLFAC
 40
1.0
  9
$DIMTOFL
 70
     1
  9
$DIMTVP
 40
0.0
  9
$DIMTIX
 70
     0
  9
$DIMSOXD
 70
     0
  9
$DIMSAH
 70
     0
  9
$DIMBLK1
  1

  9
$DIMBLK2
  1

  9
$DIMSTYLE
  2
ISO-25
  9
$DIMCLRD
 70
     0
  9
$DIMCLRE
 70
     0
  9
$DIMCLRT
 70
     0
  9
$DIMTFAC
 40
1.0
  9
$DIMGAP
 40
1.524
  9
$DIMJUST
 70
     0
  9
$DIMSD1
 70
     0
  9
$DIMSD2
 70
     0
  9
$DIMTOLJ
 70
     0
  9
$DIMTZIN
 70
     0
  9
$DIMALTZ
 70
     0
  9
$DIMALTTZ
 70
     0
  9
$DIMUPT
 70
     0
  9
$DIMDEC
 70
     2
  9
$DIMTDEC
 70
     2
  9
$DIMALTU
 70
     2
  9
$DIMALTTD
 70
     3
  9
$DIMTXSTY
  7
Standard
  9
$DIMAUNIT
 70
     0
  9
$DIMADEC
 70
     2
  9
$DIMALTRND
 40
0.0
  9
$DIMAZIN
 70
     0
  9
$DIMDSEP
 70
    44
  9
$DIMATFIT
 70
     3
  9
$DIMFRAC
 70
     0
  9
$DIMLDRBLK
  1

  9
$DIMLUNIT
 70
     2
  9
$DIMLWD
 70
    -2
  9
$DIMLWE
 70
    -2
  9
$DIMTMOVE
 70
     0
  9
$LUNITS
 70
     2
  9
$LUPREC
 70
     2
  9
$SKETCHINC
 40
1.0
  9
$FILLETRAD
 40
10.0
  9
$AUNITS
 70
     0
  9
$AUPREC
 70
     2
  9
$MENU
  1
.
  9
$ELEVATION
 40
0.0
  9
$PELEVATION
 40
0.0
  9
$THICKNESS
 40
0.0
  9
$LIMCHECK
 70
     0
  9
$CHAMFERA
 40
0.0
  9
$CHAMFERB
 40
0.0
  9
$CHAMFERC
 40
0.0
  9
$CHAMFERD
 40
0.0
  9
$SKPOLY
 70
     0
  9
$TDCREATE
 40
2457386.443963264
  9
$TDUCREATE
 40
2457386.214796597
  9
$TDUPDATE
 40
2457386.444889988
  9
$TDUUPDATE
 40
2457386.215723322
  9
$TDINDWG
 40
0.0004422338
  9
$TDUSRTIMER
 40
2457386.21528287
  9
$USRTIMER
 70
     1
  9
$ANGBASE
 50
0.0
  9
$ANGDIR
 70
     0
  9
$PDMODE
 70
     0
  9
$PDSIZE
 40
-1.0
  9
$PLINEWID
 40
0.0
  9
$SPLFRAME
 70
     0
  9
$SPLINETYPE
 70
     6
  9
$SPLINESEGS
 70
     8
  9
$HANDSEED
  5
4F9
  9
$SURFTAB1
 70
     6
  9
$SURFTAB2
 70
     6
  9
$SURFTYPE
 70
     6
  9
$SURFU
 70
     6
  9
$SURFV
 70
     6
  9
$UCSBASE
  2

  9
$UCSNAME
  2

  9
$UCSORG
 10
0.0
 20
0.0
 30
0.0
  9
$UCSXDIR
 10
1.0
 20
0.0
 30
0.0
  9
$UCSYDIR
 10
0.0
 20
1.0
 30
0.0
  9
$UCSORTHOREF
  2

  9
$UCSORTHOVIEW
 70
     0
  9
$UCSORGTOP
 10
0.0
 20
0.0
 30
0.0
  9
$UCSORGBOTTOM
 10
0.0
 20
0.0
 30
0.0
  9
$UCSORGLEFT
 10
0.0
 20
0.0
 30
0.0
  9
$UCSORGRIGHT
 10
0.0
 20
0.0
 30
0.0
  9
$UCSORGFRONT
 10
0.0
 20
0.0
 30
0.0
  9
$UCSORGBACK
 10
0.0
 20
0.0
 30
0.0
  9
$PUCSBASE
  2

  9
$PUCSNAME
  2

  9
$PUCSORG
 10
0.0
 20
0.0
 30
0.0
  9
$PUCSXDIR
 10
1.0
 20
0.0
 30
0.0
  9
$PUCSYDIR
 10
0.0
 20
1.0
 30
0.0
  9
$PUCSORTHOREF
  2

  9
$PUCSORTHOVIEW
 70
     0
  9
$PUCSORGTOP
 10
0.0
 20
0.0
 30
0.0
  9
$PUCSORGBOTTOM
 10
0.0
 20
0.0
 30
0.0
  9
$PUCSORGLEFT
 10
0.0
 20
0.0
 30
0.0
  9
$PUCSORGRIGHT
 10
0.0
 20
0.0
 30
0.0
  9
$PUCSORGFRONT
 10
0.0
 20
0.0
 30
0.0
  9
$PUCSORGBACK
 10
0.0
 20
0.0
 30
0.0
  9
$USERI1
 70
     0
  9
$USERI2
 70
     0
  9
$USERI3
 70
     0
  9
$USERI4
 70
     0
  9
$USERI5
 70
     0
  9
$USERR1
 40
0.0
  9
$USERR2
 40
0.0
  9
$USERR3
 40
0.0
  9
$USERR4
 40
0.0
  9
$USERR5
 40
0.0
  9
$WORLDVIEW
 70
     1
  9
$SHADEDGE
 70
     3
  9
$SHADEDIF
 70
    70
  9
$TILEMODE
 70
     1
  9
$MAXACTVP
 70
    64
  9
$PINSBASE
 10
0.0
 20
0.0
 30
0.0
  9
$PLIMCHECK
 70
     0
  9
$PEXTMIN
 10
1.000000000000000E+20
 20
1.000000000000000E+20
 30
1.000000000000000E+20
  9
$PEXTMAX
 10
-1.000000000000000E+20
 20
-1.000000000000000E+20
 30
-1.000000000000000E+20
  9
$PLIMMIN
 10
0.0
 20
0.0
  9
$PLIMMAX
 10
0.0
 20
0.0
  9
$UNITMODE
 70
     0
  9
$VISRETAIN
 70
     1
  9
$PLINEGEN
 70
     0
  9
$PSLTSCALE
 70
     1
  9
$TREEDEPTH
 70
  3020
  9
$CMLSTYLE
  2
Standard
  9
$CMLJUST
 70
     0
  9
$CMLSCALE
 40
20.0
  9
$PROXYGRAPHICS
 70
     1
  9
$MEASUREMENT
 70
     1
  9
$CELWEIGHT
370
    -1
  9
$ENDCAPS
280
     0
  9
$JOINSTYLE
280
     0
  9
$LWDISPLAY
290
     1
  9
$INSUNITS
 70
     4
  9
$HYPERLINKBASE
  1

  9
$STYLESHEET
  1

  9
$XEDIT
290
     1
  9
$CEPSNTYPE
380
     0
  9
$PSTYLEMODE
290
     1
  9
$FINGERPRINTGUID
  2
{042BA937-421A-46A7-9D6A-91757D1EF3F9}
  9
$VERSIONGUID
  2
{FAEB1C32-E019-11D5-929B-00C0DF256EC4}
  9
$EXTNAMES
290
     1
  9
$PSVPSCALE
 40
0.0
  9
$OLESTARTUP
290
     0
  0
ENDSEC
  0
SECTION
  2
CLASSES
  0
CLASS
  1
ACDBDICTIONARYWDFLT
  2
AcDbDictionaryWithDefault
  3
ObjectDBX Classes
 90
        0
280
     0
281
     0
  0
CLASS
  1
VISUALSTYLE
  2
AcDbVisualStyle
  3
ObjectDBX Classes
 90
     4095
280
     0
281
     0
  0
CLASS
  1
MATERIAL
  2
AcDbMaterial
  3
ObjectDBX Classes
 90
     1153
280
     0
281
     0
  0
CLASS
  1
SCALE
  2
AcDbScale
  3
ObjectDBX Classes
 90
     1153
280
     0
281
     0
  0
CLASS
  1
SUN
  2
AcDbSun
  3
SCENEOE
 90
     1153
280
     0
281
     0
  0
CLASS
  1
ACDBPLACEHOLDER
  2
AcDbPlaceHolder
  3
ObjectDBX Classes
 90
        0
280
     0
281
     0
  0
CLASS
  1
LAYOUT
  2
AcDbLayout
  3
ObjectDBX Classes
 90
        0
280
     0
281
     0
  0
CLASS
  1
TABLESTYLE
  2
AcDbTableStyle
  3
ObjectDBX Classes
 90
     4095
280
     0
281
     0
  0
CLASS
  1
RASTERVARIABLES
  2
AcDbRasterVariables
  3
ISM
 90
        0
280
     0
281
     0
  0
ENDSEC
  0
SECTION
  2
TABLES
  0
TABLE
  2
VPORT
  5
8
330
0
100
AcDbSymbolTable
 70
     1
  0
VPORT
  5
29
330
8
100
AcDbSymbolTableRecord
100
AcDbViewportTableRecord
  2
*Active
 70
     0
 10
0.0
 20
0.0
 11
1.0
 21
1.0
 12
-12.7221757809
 22
272.7169475018
 13
0.0
 23
0.0
 14
10.0
 24
10.0
 15
10.0
 25
10.0
 16
0.0
 26
0.0
 36
1.0
 17
0.0
 27
0.0
 37
0.0
 40
435.54
 41
1.8543390546
 42
50.0
 43
0.0
 44
0.0
 50
0.0
 51
0.0
 71
     0
 72
   100
 73
     1
 74
     3
 75
     0
 76
     0
 77
     0
 78
     0
281
     0
 65
     1
110
0.0
120
0.0
130
0.0
111
1.0
121
0.0
131
0.0
112
0.0
122
1.0
132
0.0
 79
     0
146
0.0
  0
ENDTAB
  0
TABLE
  2
LTYPE
  5
5
330
0
100
AcDbSymbolTable
 70
     6
  0
LTYPE
  5
14
330
5
100
AcDbSymbolTableRecord
100
AcDbLinetypeTableRecord
  2
ByBlock
 70
     0
  3

 72
    65
 73
     0
 40
0.0
  0
LTYPE
  5
15
330
5
100
AcDbSymbolTableRecord
100
AcDbLinetypeTableRecord
  2
ByLayer
 70
     0
  3

 72
    65
 73
     0
 40
0.0
  0
LTYPE
  5
16
330
5
100
AcDbSymbolTableRecord
100
AcDbLinetypeTableRecord
  2
Continuous
 70
     0
  3
Solid line
 72
    65
 73
     0
 40
0.0
  0
LTYPE
  5
6A
330
5
100
AcDbSymbolTableRecord
100
AcDbLinetypeTableRecord
  2
HIDDEN
 70
     0
  3
Hidden __ __ __ __ __ __ __ __ __ __ __ __ __ __
 72
    65
 73
     2
 40
1.905
 49
1.27
 74
     0
 49
-0.635
 74
     0
  0
LTYPE
  5
6B
330
5
100
AcDbSymbolTableRecord
100
AcDbLinetypeTableRecord
  2
PHANTOM
 70
     0
  3
Phantom ______  __  __  ______  __  __  ______
 72
    65
 73
     6
 40
12.7
 49
6.35
 74
     0
 49
-1.27
 74
     0
 49
1.27
 74
     0
 49
-1.27
 74
     0
 49
1.27
 74
     0
 49
-1.27
 74
     0
  0
LTYPE
  5
6C
330
5
100
AcDbSymbolTableRecord
100
AcDbLinetypeTableRecord
  2
CENTER
 70
     0
  3
Center ____ _ ____ _ ____ _ ____ _ ____ _ ____
 72
    65
 73
     4
 40
10.16
 49
6.35
 74
     0
 49
-1.27
 74
     0
 49
1.27
 74
     0
 49
-1.27
 74
     0
  0
LTYPE
  5
6D
330
5
100
AcDbSymbolTableRecord
100
AcDbLinetypeTableRecord
  2
CENTERX2
 70
     0
  3
Center (2x) ________  __  ________  __  _____
 72
    65
 73
     4
 40
20.32
 49
12.7
 74
     0
 49
-2.54
 74
     0
 49
2.54
 74
     0
 49
-2.54
 74
     0
  0
LTYPE
  5
6E
330
5
100
AcDbSymbolTableRecord
100
AcDbLinetypeTableRecord
  2
DOT2
 70
     0
  3
Dot (.5x) ........................................
 72
    65
 73
     2
 40
0.635
 49
0.0
 74
     0
 49
-0.635
 74
     0
  0
ENDTAB
  0
TABLE
  2
LAYER
  5
2
330
0
100
AcDbSymbolTable
 70
     1
  0
LAYER
  5
10
330
2
100
AcDbSymbolTableRecord
100
AcDbLayerTableRecord
  2
0
 70
     0
 62
     7
  6
Continuous
370
    -3
390
F
  0
ENDTAB
  0
TABLE
  2
STYLE
  5
3
330
0
100
AcDbSymbolTable
 70
     1
  0
STYLE
  5
11
330
3
100
AcDbSymbolTableRecord
100
AcDbTextStyleTableRecord
  2
Standard
 70
     0
 40
0.0
 41
1.0
 50
0.0
 71
     0
 42
3.5
  3
txt
  4

  0
ENDTAB
  0
TABLE
  2
VIEW
  5
6
330
0
100
AcDbSymbolTable
 70
     0
  0
ENDTAB
  0
TABLE
  2
UCS
  5
7
330
0
100
AcDbSymbolTable
 70
     0
  0
ENDTAB
  0
TABLE
  2
APPID
  5
9
330
0
100
AcDbSymbolTable
 70
     1
  0
APPID
  5
12
330
9
100
AcDbSymbolTableRecord
100
AcDbRegAppTableRecord
  2
ACAD
 70
     0
  0
ENDTAB
  0
TABLE
  2
DIMSTYLE
  5
A
330
0
100
AcDbSymbolTable
 70
     1
100
AcDbDimStyleTable
  0
DIMSTYLE
105
27
330
A
100
AcDbSymbolTableRecord
100
AcDbDimStyleTableRecord
  2
ISO-25
 70
     0
 41
2.5
 42
0.625
 43
3.75
 44
1.25
 73
     0
 74
     0
 77
     1
 78
     8
140
2.5
141
2.5
143
0.0393700787
147
0.625
171
     3
172
     1
178
     0
271
     2
272
     2
274
     3
278
    44
283
     0
284
     8
340
11
  0
ENDTAB
  0
TABLE
  2
BLOCK_RECORD
  5
1
330
0
100
AcDbSymbolTable
 70
     1
  0
BLOCK_RECORD
  5
1F
330
1
100
AcDbSymbolTableRecord
100
AcDbBlockTableRecord
  2
*Model_Space
340
22
  0
BLOCK_RECORD
  5
1B
330
1
100
AcDbSymbolTableRecord
100
AcDbBlockTableRecord
  2
*Paper_Space
340
1E
  0
BLOCK_RECORD
  5
23
330
1
100
AcDbSymbolTableRecord
100
AcDbBlockTableRecord
  2
*Paper_Space0
340
26
  0
ENDTAB
  0
ENDSEC
  0
SECTION
  2
BLOCKS
  0
BLOCK
  5
20
330
1F
100
AcDbEntity
  8
0
100
AcDbBlockBegin
  2
*Model_Space
 70
     0
 10
0.0
 20
0.0
 30
0.0
  3
*Model_Space
  1
*Model_Space
  0
ENDBLK
  5
21
330
1F
100
AcDbEntity
  8
0
100
AcDbBlockEnd
  0
BLOCK
  5
1C
330
1B
100
AcDbEntity
 67
     1
  8
0
100
AcDbBlockBegin
  2
*Paper_Space
 70
     0
 10
0.0
 20
0.0
 30
0.0
  3
*Paper_Space
  1
*Paper_Space
  0
ENDBLK
  5
1D
330
1B
100
AcDbEntity
 67
     1
  8
0
100
AcDbBlockEnd
  0
BLOCK
  5
24
330
23
100
AcDbEntity
  8
0
100
AcDbBlockBegin
  2
*Paper_Space0
 70
     0
 10
0.0
 20
0.0
 30
0.0
  3
*Paper_Space0
  1
*Paper_Space0
  0
ENDBLK
  5
25
330
23
100
AcDbEntity
  8
0
100
AcDbBlockEnd
  0
ENDSEC
  0
SECTION
  2
ENTITIES
  0
CIRCLE
  5
70
330
1F
100
AcDbEntity
  8
0
  6
Continuous
 62
     7
370
     5
100
AcDbCircle
 10
-288.2267345359
 20
397.9383005277
 30
0.0
 40
1.899999999999977
  0
CIRCLE
  5
72
330
1F
100
AcDbEntity
  8
0
  6
Continuous
 62
     7
370
     5
100
AcDbCircle
 10
-383.1915548918
 20
302.0296909059
 30
0.0
 40
1.900000000000034
  0
CIRCLE
  5
73
330
1F
100
AcDbEntity
  8
0
  6
Continuous
 62
     7
370
     5
100
AcDbCircle
 10
-358.6854614659
 20
303.1738228876
 30
0.0
 40
1.899999999999977
  0
CIRCLE
  5
74
330
1F
100
AcDbEntity
  8
0
  6
Continuous
 62
     7
370
     5
100
AcDbCircle
 10
-314.8297607582
 20
303.2909898514
 30
0.0
 40
1.899999999999977
  0
CIRCLE
  5
75
330
1F
100
AcDbEntity
  8
0
  6
Continuous
 62
     7
370
     5
100
AcDbCircle
 10
-312.60228692
 20
390.1260511559
 30
0.0
 40
1.900000000000034
  0
CIRCLE
  5
85
330
1F
100
AcDbEntity
  8
0
  6
Continuous
 62
     7
370
     5
100
AcDbCircle
 10
-383.2155461486
 20
397.9818733771
 30
0.0
 40
1.899999999999977
  0
CIRCLE
  5
BD
330
1F
100
AcDbEntity
  8
0
  6
Continuous
 62
     7
370
     5
100
AcDbCircle
 10
-358.720137191
 20
397.2063751688
 30
0.0
 40
1.900000000000034
  0
CIRCLE
  5
BE
330
1F
100
AcDbEntity
  8
0
  6
Continuous
 62
     7
370
     5
100
AcDbCircle
 10
-360.8603331963
 20
390.1975445578
 30
0.0
 40
1.899999999999977
  0
CIRCLE
  5
BF
330
1F
100
AcDbEntity
  8
0
  6
Continuous
 62
     7
370
     5
100
AcDbCircle
 10
-314.7887016515
 20
397.2346572013
 30
0.0
 40
1.900000000000034
  0
CIRCLE
  5
C0
330
1F
100
AcDbEntity
  8
0
  6
Continuous
 62
     7
370
     5
100
AcDbCircle
 10
-288.1753218208
 20
302.07174971
 30
0.0
 40
1.899999999999977
  0
CIRCLE
  5
C1
330
1F
100
AcDbEntity
  8
0
  6
Continuous
 62
     7
370
     5
100
AcDbCircle
 10
-312.5693416647
 20
315.184879376
 30
0.0
 40
1.900000000000034
  0
CIRCLE
  5
C2
330
1F
100
AcDbEntity
  8
0
  6
Continuous
 62
     7
370
     5
100
AcDbCircle
 10
-360.8303576144
 20
308.8844856489
 30
0.0
 40
1.899999999999977
  0
CIRCLE
  5
135
330
1F
100
AcDbEntity
  8
0
  6
Continuous
 62
     7
370
     5
100
AcDbCircle
 10
214.5842735577
 20
271.6159859495
 30
0.0
 40
1.599999999999937
  0
CIRCLE
  5
13A
330
1F
100
AcDbEntity
  8
0
  6
Continuous
 62
     7
370
     5
100
AcDbCircle
 10
226.0842735577
 20
116.9733456673
 30
0.0
 40
1.599999999999994
  0
CIRCLE
  5
143
330
1F
100
AcDbEntity
  8
0
  6
Continuous
 62
     7
370
     5
100
AcDbCircle
 10
-80.9157264423
 20
116.9733456673
 30
0.0
 40
1.59999999999998
  0
CIRCLE
  5
144
330
1F
100
AcDbEntity
  8
0
  6
Continuous
 62
     7
370
     5
100
AcDbCircle
 10
-132.9157264423
 20
116.9733456673
 30
0.0
 40
1.599999999999966
  0
CIRCLE
  5
149
330
1F
100
AcDbEntity
  8
0
  6
Continuous
 62
     7
370
     5
100
AcDbCircle
 10
207.3283267328
 20
92.9675506449
 30
0.0
 40
1.798261493264647
  0
CIRCLE
  5
14A
330
1F
100
AcDbEntity
  8
0
  6
Continuous
 62
     7
370
     5
100
AcDbCircle
 10
117.4152520696
 20
92.9675506449
 30
0.0
 40
1.798261493264619
  0
CIRCLE
  5
14B
330
1F
100
AcDbEntity
  8
0
  6
Continuous
 62
     7
370
     5
100
AcDbCircle
 10
27.5021774064
 20
92.9675506449
 30
0.0
 40
1.798261493264622
  0
CIRCLE
  5
14C
330
1F
100
AcDbEntity
  8
0
  6
Continuous
 62
     7
370
     5
100
AcDbCircle
 10
-62.4108972569
 20
92.9675506449
 30
0.0
 40
1.798261493264633
  0
CIRCLE
  5
14D
330
1F
100
AcDbEntity
  8
0
  6
Continuous
 62
     7
370
     5
100
AcDbCircle
 10
278.0842735577
 20
116.9733456673
 30
0.0
 40
1.599999999999909
  0
CIRCLE
  5
152
330
1F
100
AcDbEntity
  8
0
  6
Continuous
 62
     7
370
     5
100
AcDbCircle
 10
72.5842735577
 20
450.6159859495
 30
0.0
 40
1.59999999999998
  0
CIRCLE
  5
153
330
1F
100
AcDbEntity
  8
0
  6
Continuous
 62
     7
370
     5
100
AcDbCircle
 10
122.5842735577
 20
450.6159859495
 30
0.0
 40
1.59999999999998
  0
CIRCLE
  5
154
330
1F
100
AcDbEntity
  8
0
  6
Continuous
 62
     7
370
     5
100
AcDbCircle
 10
172.5842735577
 20
450.6159859495
 30
0.0
 40
1.599999999999966
  0
CIRCLE
  5
155
330
1F
100
AcDbEntity
  8
0
  6
Continuous
 62
     7
370
     5
100
AcDbCircle
 10
22.5842735577
 20
450.6159859495
 30
0.0
 40
1.599999999999998
  0
CIRCLE
  5
156
330
1F
100
AcDbEntity
  8
0
  6
Continuous
 62
     7
370
     5
100
AcDbCircle
 10
-27.4157264423
 20
450.6159859495
 30
0.0
 40
1.599999999999948
  0
CIRCLE
  5
15B
330
1F
100
AcDbEntity
  8
0
  6
Continuous
 62
     7
370
     5
100
AcDbCircle
 10
-69.4157264423
 20
426.6159859495
 30
0.0
 40
1.59999999999998
  0
CIRCLE
  5
15C
330
1F
100
AcDbEntity
  8
0
  6
Continuous
 62
     7
370
     5
100
AcDbCircle
 10
-69.4157264423
 20
271.6159859495
 30
0.0
 40
1.599999999999909
  0
CIRCLE
  5
15D
330
1F
100
AcDbEntity
  8
0
  6
Continuous
 62
     7
370
     5
100
AcDbCircle
 10
-69.4157264423
 20
111.6159859495
 30
0.0
 40
1.599999999999966
  0
CIRCLE
  5
19E
330
1F
100
AcDbEntity
  8
0
  6
Continuous
 62
     7
370
     5
100
AcDbCircle
 10
214.5842735577
 20
426.6159859495
 30
0.0
 40
1.599999999999966
  0
CIRCLE
  5
19F
330
1F
100
AcDbEntity
  8
0
  6
Continuous
 62
     7
370
     5
100
AcDbCircle
 10
214.5842735577
 20
111.6159859495
 30
0.0
 40
1.599999999999994
  0
CIRCLE
  5
1C2
330
1F
100
AcDbEntity
  8
0
  6
Continuous
 62
     7
370
     5
100
AcDbCircle
 10
-32.2409397551
 20
129.9288380192
 30
0.0
 40
1.599999999999969
  0
CIRCLE
  5
1C3
330
1F
100
AcDbEntity
  8
0
  6
Continuous
 62
     7
370
     5
100
AcDbCircle
 10
177.7590602449
 20
339.9288380192
 30
0.0
 40
1.599999999999994
  0
CIRCLE
  5
1C4
330
1F
100
AcDbEntity
  8
0
  6
Continuous
 62
     7
370
     5
100
AcDbCircle
 10
72.7590602449
 20
214.0288380192
 30
0.0
 40
1.749999999999972
  0
CIRCLE
  5
1D7
330
1F
100
AcDbEntity
  8
0
  6
Continuous
 62
     7
370
     5
100
AcDbCircle
 10
72.7590602449
 20
255.8288380192
 30
0.0
 40
1.749999999999957
  0
CIRCLE
  5
1D8
330
1F
100
AcDbEntity
  8
0
  6
Continuous
 62
     7
370
     5
100
AcDbCircle
 10
-32.2409397551
 20
339.9288380192
 30
0.0
 40
1.599999999999984
  0
CIRCLE
  5
1D9
330
1F
100
AcDbEntity
  8
0
  6
Continuous
 62
     7
370
     5
100
AcDbCircle
 10
177.7590602449
 20
129.9288380192
 30
0.0
 40
1.599999999999966
  0
CIRCLE
  5
1F2
330
1F
100
AcDbEntity
  8
0
  6
Continuous
 62
     7
370
     5
100
AcDbCircle
 10
-2.2409397551
 20
278.9288380192
 30
0.0
 40
1.900000000000007
  0
CIRCLE
  5
1F3
330
1F
100
AcDbEntity
  8
0
  6
Continuous
 62
     7
370
     5
100
AcDbCircle
 10
-26.2409397551
 20
278.9288380192
 30
0.0
 40
1.900000000000006
  0
CIRCLE
  5
1F4
330
1F
100
AcDbEntity
  8
0
  6
Continuous
 62
     7
370
     5
100
AcDbCircle
 10
-26.2409397551
 20
260.9288380192
 30
0.0
 40
1.900000000000031
  0
CIRCLE
  5
1F5
330
1F
100
AcDbEntity
  8
0
  6
Continuous
 62
     7
370
     5
100
AcDbCircle
 10
-2.2409397551
 20
260.9288380192
 30
0.0
 40
1.900000000000015
  0
CIRCLE
  5
1F6
330
1F
100
AcDbEntity
  8
0
  6
Continuous
 62
     7
370
     5
100
AcDbCircle
 10
-26.2409397551
 20
208.9288380192
 30
0.0
 40
1.899999999999984
  0
CIRCLE
  5
1F7
330
1F
100
AcDbEntity
  8
0
  6
Continuous
 62
     7
370
     5
100
AcDbCircle
 10
-2.2409397551
 20
208.9288380192
 30
0.0
 40
1.900000000000005
  0
CIRCLE
  5
1F8
330
1F
100
AcDbEntity
  8
0
  6
Continuous
 62
     7
370
     5
100
AcDbCircle
 10
-2.2409397551
 20
190.9288380192
 30
0.0
 40
1.900000000000016
  0
CIRCLE
  5
1F9
330
1F
100
AcDbEntity
  8
0
  6
Continuous
 62
     7
370
     5
100
AcDbCircle
 10
-26.2409397551
 20
190.9288380192
 30
0.0
 40
1.899999999999995
  0
CIRCLE
  5
1FA
330
1F
100
AcDbEntity
  8
0
  6
Continuous
 62
     7
370
     5
100
AcDbCircle
 10
171.7590602449
 20
243.9288380192
 30
0.0
 40
1.900000000000006
  0
CIRCLE
  5
1FB
330
1F
100
AcDbEntity
  8
0
  6
Continuous
 62
     7
370
     5
100
AcDbCircle
 10
147.7590602449
 20
243.9288380192
 30
0.0
 40
1.900000000000034
  0
CIRCLE
  5
1FC
330
1F
100
AcDbEntity
  8
0
  6
Continuous
 62
     7
370
     5
100
AcDbCircle
 10
147.7590602449
 20
225.9288380192
 30
0.0
 40
1.900000000000034
  0
CIRCLE
  5
1FD
330
1F
100
AcDbEntity
  8
0
  6
Continuous
 62
     7
370
     5
100
AcDbCircle
 10
171.7590602449
 20
225.9288380192
 30
0.0
 40
1.900000000000006
  0
CIRCLE
  5
28A
330
1F
100
AcDbEntity
  8
0
  6
Continuous
 62
     7
370
     5
100
AcDbCircle
 10
324.5792123764
 20
463.7169475018
 30
0.0
 40
1.599999999999966
  0
CIRCLE
  5
2A4
330
1F
100
AcDbEntity
  8
0
  6
Continuous
 62
     7
370
     5
100
AcDbCircle
 10
351.7792123764
 20
461.2169475018
 30
0.0
 40
1.600000000000023
  0
CIRCLE
  5
2A8
330
1F
100
AcDbEntity
  8
0
  6
Continuous
 62
     7
370
     5
100
AcDbCircle
 10
351.7792123764
 20
84.2169475018
 30
0.0
 40
1.599999999999966
  0
CIRCLE
  5
2A9
330
1F
100
AcDbEntity
  8
0
  6
Continuous
 62
     7
370
     5
100
AcDbCircle
 10
314.5792123764
 20
469.7169475018
 30
0.0
 40
4.100000000000136
  0
CIRCLE
  5
2AA
330
1F
100
AcDbEntity
  8
0
  6
Continuous
 62
     7
370
     5
100
AcDbCircle
 10
314.5792123764
 20
452.6169475018
 30
0.0
 40
4.250000000000057
  0
CIRCLE
  5
2AB
330
1F
100
AcDbEntity
  8
0
  6
Continuous
 62
     7
370
     5
100
AcDbCircle
 10
314.5792123764
 20
93.2169475018
 30
0.0
 40
4.249999999999886
  0
CIRCLE
  5
2AC
330
1F
100
AcDbEntity
  8
0
  6
Continuous
 62
     7
370
     5
100
AcDbCircle
 10
314.5792123764
 20
76.1169475018
 30
0.0
 40
4.100000000000023
  0
CIRCLE
  5
2AD
330
1F
100
AcDbEntity
  8
0
  6
Continuous
 62
     7
370
     5
100
AcDbCircle
 10
324.5792123764
 20
475.7169475018
 30
0.0
 40
1.599999999999966
  0
CIRCLE
  5
2AE
330
1F
100
AcDbEntity
  8
0
  6
Continuous
 62
     7
370
     5
100
AcDbCircle
 10
324.5792123764
 20
70.1169475018
 30
0.0
 40
1.599999999999966
  0
CIRCLE
  5
2AF
330
1F
100
AcDbEntity
  8
0
  6
Continuous
 62
     7
370
     5
100
AcDbCircle
 10
324.5792123764
 20
82.1169475018
 30
0.0
 40
1.600000000000023
  0
CIRCLE
  5
2B0
330
1F
100
AcDbEntity
  8
0
  6
Continuous
 62
     7
370
     5
100
AcDbCircle
 10
25.9611142832
 20
381.9150587756
 30
0.0
 40
1.599999999999966
  0
CIRCLE
  5
2B1
330
1F
100
AcDbEntity
  8
0
  6
Continuous
 62
     7
370
     5
100
AcDbCircle
 10
-0.0388857168
 20
376.9150587756
 30
0.0
 40
12.00000000000006
  0
CIRCLE
  5
2B2
330
1F
100
AcDbEntity
  8
0
  6
Continuous
 62
     7
370
     5
100
AcDbCircle
 10
15.4611142832
 20
361.4150587756
 30
0.0
 40
1.599999999999909
  0
CIRCLE
  5
2B3
330
1F
100
AcDbEntity
  8
0
  6
Continuous
 62
     7
370
     5
100
AcDbCircle
 10
-15.5388857168
 20
392.4150587756
 30
0.0
 40
1.599999999999966
  0
CIRCLE
  5
2B8
330
1F
100
AcDbEntity
  8
0
  6
Continuous
 62
     7
370
     5
100
AcDbCircle
 10
15.4611142832
 20
392.4150587756
 30
0.0
 40
1.599999999999966
  0
CIRCLE
  5
2B9
330
1F
100
AcDbEntity
  8
0
  6
Continuous
 62
     7
370
     5
100
AcDbCircle
 10
-15.5388857168
 20
361.4150587756
 30
0.0
 40
1.599999999999909
  0
CIRCLE
  5
2BA
330
1F
100
AcDbEntity
  8
0
  6
Continuous
 62
     7
370
     5
100
AcDbCircle
 10
-26.0388857168
 20
381.9150587756
 30
0.0
 40
1.599999999999966
  0
CIRCLE
  5
2BB
330
1F
100
AcDbEntity
  8
0
  6
Continuous
 62
     7
370
     5
100
AcDbCircle
 10
-17.1388857168
 20
376.9150587756
 30
0.0
 40
4.099999999999966
  0
CIRCLE
  5
2BC
330
1F
100
AcDbEntity
  8
0
  6
Continuous
 62
     7
370
     5
100
AcDbCircle
 10
93.1263313395
 20
392.0414464588
 30
0.0
 40
1.600000000000023
  0
CIRCLE
  5
2BD
330
1F
100
AcDbEntity
  8
0
  6
Continuous
 62
     7
370
     5
100
AcDbCircle
 10
62.1263313395
 20
361.0414464588
 30
0.0
 40
1.599999999999966
  0
CIRCLE
  5
2C1
330
1F
100
AcDbEntity
  8
0
  6
Continuous
 62
     7
370
     5
100
AcDbCircle
 10
62.1263313395
 20
392.0414464588
 30
0.0
 40
1.600000000000023
  0
CIRCLE
  5
2C2
330
1F
100
AcDbEntity
  8
0
  6
Continuous
 62
     7
370
     5
100
AcDbCircle
 10
103.6263313395
 20
381.5414464588
 30
0.0
 40
1.599999999999966
  0
CIRCLE
  5
2C3
330
1F
100
AcDbEntity
  8
0
  6
Continuous
 62
     7
370
     5
100
AcDbCircle
 10
77.6263313395
 20
376.5414464588
 30
0.0
 40
11.99999999999994
  0
CIRCLE
  5
2C4
330
1F
100
AcDbEntity
  8
0
  6
Continuous
 62
     7
370
     5
100
AcDbCircle
 10
93.1263313395
 20
361.0414464588
 30
0.0
 40
1.599999999999966
  0
CIRCLE
  5
2C6
330
1F
100
AcDbEntity
  8
0
  6
Continuous
 62
     7
370
     5
100
AcDbCircle
 10
51.6263313395
 20
381.5414464588
 30
0.0
 40
1.600000000000023
  0
CIRCLE
  5
2C7
330
1F
100
AcDbEntity
  8
0
  6
Continuous
 62
     7
370
     5
100
AcDbCircle
 10
60.5263313395
 20
376.5414464588
 30
0.0
 40
4.099999999999966
  0
LINE
  5
2C8
330
1F
100
AcDbEntity
  8
0
  6
Continuous
 62
     7
370
     5
100
AcDbLine
 10
-382.6875610964
 20
447.2018545956
 30
0.0
 11
-374.6764247987
 21
447.2018545956
 31
0.0
  0
LINE
  5
2C9
330
1F
100
AcDbEntity
  8
0
  6
Continuous
 62
     7
370
     5
100
AcDbLine
 10
-389.5235639383
 20
439.7178832621
 30
0.0
 11
-394.6235639383
 21
439.7178832621
 31
0.0
  0
LINE
  5
2CA
330
1F
100
AcDbEntity
  8
0
  6
Continuous
 62
     7
370
     5
100
AcDbLine
 10
-394.6235639383
 20
439.7178832621
 30
0.0
 11
-394.6235639383
 21
437.8178832621
 31
0.0
  0
LINE
  5
2CB
330
1F
100
AcDbEntity
  8
0
  6
Continuous
 62
     7
370
     5
100
AcDbLine
 10
-394.6235639383
 20
437.8178832621
 30
0.0
 11
-402.6235639383
 21
437.8178832621
 31
0.0
  0
LINE
  5
2CC
330
1F
100
AcDbEntity
  8
0
  6
Continuous
 62
     7
370
     5
100
AcDbLine
 10
-385.5235639383
 20
437.8178832621
 30
0.0
 11
-389.5235639383
 21
437.8178832621
 31
0.0
  0
LINE
  5
2CD
330
1F
100
AcDbEntity
  8
0
  6
Continuous
 62
     7
370
     5
100
AcDbLine
 10
-251.8303408457
 20
459.201345451
 30
0.0
 11
-402.6235639383
 21
459.201345451
 31
0.0
  0
LINE
  5
2CE
330
1F
100
AcDbEntity
  8
0
  6
Continuous
 62
     7
370
     5
100
AcDbLine
 10
-249.8304307251
 20
461.2012555716
 30
0.0
 11
-251.8303408457
 21
459.201345451
 31
0.0
  0
LINE
  5
2CF
330
1F
100
AcDbEntity
  8
0
  6
Continuous
 62
     7
370
     5
100
AcDbLine
 10
-229.8313295192
 20
461.2012555716
 30
0.0
 11
-249.8304307251
 21
461.2012555716
 31
0.0
  0
LINE
  5
2D0
330
1F
100
AcDbEntity
  8
0
  6
Continuous
 62
     7
370
     5
100
AcDbLine
 10
-224.8315542177
 20
456.2014802701
 30
0.0
 11
-229.8313295192
 21
461.2012555716
 31
0.0
  0
LINE
  5
2D1
330
1F
100
AcDbEntity
  8
0
  6
Continuous
 62
     7
370
     5
100
AcDbLine
 10
-224.8315542177
 20
440.6021813295
 30
0.0
 11
-224.8315542177
 21
456.2014802701
 31
0.0
  0
LINE
  5
2D2
330
1F
100
AcDbEntity
  8
0
  6
Continuous
 62
     7
370
     5
100
AcDbLine
 10
-229.8313295192
 20
435.602406028
 30
0.0
 11
-224.8315542177
 21
440.6021813295
 31
0.0
  0
LINE
  5
2D3
330
1F
100
AcDbEntity
  8
0
  6
Continuous
 62
     7
370
     5
100
AcDbLine
 10
-299.8281837399
 20
435.602406028
 30
0.0
 11
-229.8313295192
 21
435.602406028
 31
0.0
  0
LINE
  5
2D4
330
1F
100
AcDbEntity
  8
0
  6
Continuous
 62
     7
370
     5
100
AcDbLine
 10
-300.9669363608
 20
435.4524864013
 30
0.0
 11
-299.8281837399
 21
435.602406028
 31
0.0
  0
LINE
  5
2D5
330
1F
100
AcDbEntity
  8
0
  6
Continuous
 62
     7
370
     5
100
AcDbLine
 10
-302.0280848725
 20
435.0129442961
 30
0.0
 11
-300.9669363608
 21
435.4524864013
 31
0.0
  0
LINE
  5
2D6
330
1F
100
AcDbEntity
  8
0
  6
Continuous
 62
     7
370
     5
100
AcDbLine
 10
-374.6250927663
 20
455.2015252098
 30
0.0
 11
-382.6875610964
 21
455.1990534703
 31
0.0
  0
LINE
  5
2D7
330
1F
100
AcDbEntity
  8
0
  6
Continuous
 62
     7
370
     5
100
AcDbLine
 10
-389.5235639383
 20
434.6178832621
 30
0.0
 11
-385.5235639383
 21
434.6178832621
 31
0.0
  0
LINE
  5
2D8
330
1F
100
AcDbEntity
  8
0
  6
Continuous
 62
     7
370
     5
100
AcDbLine
 10
-385.5235639383
 20
434.6178832621
 30
0.0
 11
-385.5235639383
 21
437.8178832621
 31
0.0
  0
LINE
  5
2D9
330
1F
100
AcDbEntity
  8
0
  6
Continuous
 62
     7
370
     5
100
AcDbLine
 10
-303.6385242732
 20
429.0027026301
 30
0.0
 11
-304.0780663785
 21
430.0638511418
 31
0.0
  0
LINE
  5
2DA
330
1F
100
AcDbEntity
  8
0
  6
Continuous
 62
     7
370
     5
100
AcDbLine
 10
-302.9393137575
 20
428.091473745
 30
0.0
 11
-303.6385242732
 21
429.0027026301
 31
0.0
  0
LINE
  5
2DB
330
1F
100
AcDbEntity
  8
0
  6
Continuous
 62
     7
370
     5
100
AcDbLine
 10
-302.0280848725
 20
427.3922632293
 30
0.0
 11
-302.9393137575
 21
428.091473745
 31
0.0
  0
LINE
  5
2DC
330
1F
100
AcDbEntity
  8
0
  6
Continuous
 62
     7
370
     5
100
AcDbLine
 10
-300.9669363608
 20
426.9527211241
 30
0.0
 11
-302.0280848725
 21
427.3922632293
 31
0.0
  0
LINE
  5
2DD
330
1F
100
AcDbEntity
  8
0
  6
Continuous
 62
     7
370
     5
100
AcDbLine
 10
-402.6235639383
 20
459.201345451
 30
0.0
 11
-402.6235639383
 21
437.8178832621
 31
0.0
  0
LINE
  5
2DE
330
1F
100
AcDbEntity
  8
0
  6
Continuous
 62
     7
370
     5
100
AcDbLine
 10
-229.8313295192
 20
426.8028014974
 30
0.0
 11
-299.8281837399
 21
426.8028014974
 31
0.0
  0
LINE
  5
2DF
330
1F
100
AcDbEntity
  8
0
  6
Continuous
 62
     7
370
     5
100
AcDbLine
 10
-224.8315542177
 20
421.8030261959
 30
0.0
 11
-229.8313295192
 21
426.8028014974
 31
0.0
  0
LINE
  5
2E0
330
1F
100
AcDbEntity
  8
0
  6
Continuous
 62
     7
370
     5
100
AcDbLine
 10
-224.8315542177
 20
414.2033677377
 30
0.0
 11
-224.8315542177
 21
421.8030261959
 31
0.0
  0
LINE
  5
2E1
330
1F
100
AcDbEntity
  8
0
  6
Continuous
 62
     7
370
     5
100
AcDbLine
 10
-377.2247054068
 20
91.2178832621
 30
0.0
 11
-224.8315542177
 21
414.2033677377
 31
0.0
  0
LINE
  5
2E2
330
1F
100
AcDbEntity
  8
0
  6
Continuous
 62
     7
370
     5
100
AcDbLine
 10
-402.6235639383
 20
91.2178832621
 30
0.0
 11
-377.2247054068
 21
91.2178832621
 31
0.0
  0
LINE
  5
2E3
330
1F
100
AcDbEntity
  8
0
  6
Continuous
 62
     7
370
     5
100
AcDbLine
 10
-402.6235639383
 20
101.7178832621
 30
0.0
 11
-402.6235639383
 21
91.2178832621
 31
0.0
  0
LINE
  5
2E4
330
1F
100
AcDbEntity
  8
0
  6
Continuous
 62
     7
370
     5
100
AcDbLine
 10
-408.6235639383
 20
101.7178832621
 30
0.0
 11
-402.6235639383
 21
101.7178832621
 31
0.0
  0
LINE
  5
2E5
330
1F
100
AcDbEntity
  8
0
  6
Continuous
 62
     7
370
     5
100
AcDbLine
 10
-408.6235639383
 20
101.7178832621
 30
0.0
 11
-408.6235639383
 21
108.7178832621
 31
0.0
  0
LINE
  5
2E6
330
1F
100
AcDbEntity
  8
0
  6
Continuous
 62
     7
370
     5
100
AcDbLine
 10
-408.6235639383
 20
108.7178832621
 30
0.0
 11
-402.6235639383
 21
108.7178832621
 31
0.0
  0
LINE
  5
2E7
330
1F
100
AcDbEntity
  8
0
  6
Continuous
 62
     7
370
     5
100
AcDbLine
 10
-402.6235639383
 20
119.6178832621
 30
0.0
 11
-402.6235639383
 21
108.7178832621
 31
0.0
  0
LINE
  5
2E8
330
1F
100
AcDbEntity
  8
0
  6
Continuous
 62
     7
370
     5
100
AcDbLine
 10
-402.6235639383
 20
119.6178832621
 30
0.0
 11
-394.6235639383
 21
119.6178832621
 31
0.0
  0
LINE
  5
2E9
330
1F
100
AcDbEntity
  8
0
  6
Continuous
 62
     7
370
     5
100
AcDbLine
 10
-304.0780663785
 20
432.3413563837
 30
0.0
 11
-303.6385242732
 21
433.4025048954
 31
0.0
  0
LINE
  5
2EA
330
1F
100
AcDbEntity
  8
0
  6
Continuous
 62
     7
370
     5
100
AcDbLine
 10
-394.6235639383
 20
117.7178832621
 30
0.0
 11
-389.5235639383
 21
117.7178832621
 31
0.0
  0
LINE
  5
2EB
330
1F
100
AcDbEntity
  8
0
  6
Continuous
 62
     7
370
     5
100
AcDbLine
 10
-389.5235639383
 20
117.7178832621
 30
0.0
 11
-389.5235639383
 21
119.6178832621
 31
0.0
  0
LINE
  5
2EC
330
1F
100
AcDbEntity
  8
0
  6
Continuous
 62
     7
370
     5
100
AcDbLine
 10
-389.5235639383
 20
119.6178832621
 30
0.0
 11
-385.5235639383
 21
119.6178832621
 31
0.0
  0
LINE
  5
2ED
330
1F
100
AcDbEntity
  8
0
  6
Continuous
 62
     7
370
     5
100
AcDbLine
 10
-385.5235639383
 20
119.6178832621
 30
0.0
 11
-385.5235639383
 21
122.8178832621
 31
0.0
  0
LINE
  5
2EE
330
1F
100
AcDbEntity
  8
0
  6
Continuous
 62
     7
370
     5
100
AcDbLine
 10
-385.5235639383
 20
122.8178832621
 30
0.0
 11
-389.5235639383
 21
122.8178832621
 31
0.0
  0
LINE
  5
2EF
330
1F
100
AcDbEntity
  8
0
  6
Continuous
 62
     7
370
     5
100
AcDbLine
 10
-389.5235639383
 20
122.8178832621
 30
0.0
 11
-389.5235639383
 21
124.7178832621
 31
0.0
  0
LINE
  5
2F0
330
1F
100
AcDbEntity
  8
0
  6
Continuous
 62
     7
370
     5
100
AcDbLine
 10
-389.5235639383
 20
124.7178832621
 30
0.0
 11
-394.6235639383
 21
124.7178832621
 31
0.0
  0
LINE
  5
2F1
330
1F
100
AcDbEntity
  8
0
  6
Continuous
 62
     7
370
     5
100
AcDbLine
 10
-394.6235639383
 20
124.7178832621
 30
0.0
 11
-394.6235639383
 21
122.8178832621
 31
0.0
  0
LINE
  5
2F2
330
1F
100
AcDbEntity
  8
0
  6
Continuous
 62
     7
370
     5
100
AcDbLine
 10
-394.6235639383
 20
122.8178832621
 30
0.0
 11
-402.6235639383
 21
122.8178832621
 31
0.0
  0
LINE
  5
2F3
330
1F
100
AcDbEntity
  8
0
  6
Continuous
 62
     7
370
     5
100
AcDbLine
 10
-402.6235639383
 20
133.7178832621
 30
0.0
 11
-402.6235639383
 21
122.8178832621
 31
0.0
  0
LINE
  5
2F4
330
1F
100
AcDbEntity
  8
0
  6
Continuous
 62
     7
370
     5
100
AcDbLine
 10
-408.6235639383
 20
133.7178832621
 30
0.0
 11
-402.6235639383
 21
133.7178832621
 31
0.0
  0
LINE
  5
2F5
330
1F
100
AcDbEntity
  8
0
  6
Continuous
 62
     7
370
     5
100
AcDbLine
 10
-408.6235639383
 20
133.7178832621
 30
0.0
 11
-408.6235639383
 21
140.7178832621
 31
0.0
  0
LINE
  5
2F6
330
1F
100
AcDbEntity
  8
0
  6
Continuous
 62
     7
370
     5
100
AcDbLine
 10
-408.6235639383
 20
140.7178832621
 30
0.0
 11
-402.6235639383
 21
140.7178832621
 31
0.0
  0
LINE
  5
2F7
330
1F
100
AcDbEntity
  8
0
  6
Continuous
 62
     7
370
     5
100
AcDbLine
 10
-402.6235639383
 20
256.6777313838
 30
0.0
 11
-402.6235639383
 21
140.7178832621
 31
0.0
  0
LINE
  5
2F8
330
1F
100
AcDbEntity
  8
0
  6
Continuous
 62
     7
370
     5
100
AcDbLine
 10
-408.6235639383
 20
256.6777313838
 30
0.0
 11
-402.6235639383
 21
256.6777313838
 31
0.0
  0
LINE
  5
2F9
330
1F
100
AcDbEntity
  8
0
  6
Continuous
 62
     7
370
     5
100
AcDbLine
 10
-408.6235639383
 20
256.6777313838
 30
0.0
 11
-408.6235639383
 21
263.6777313838
 31
0.0
  0
LINE
  5
2FA
330
1F
100
AcDbEntity
  8
0
  6
Continuous
 62
     7
370
     5
100
AcDbLine
 10
-408.6235639383
 20
263.6777313838
 30
0.0
 11
-402.6235639383
 21
263.6777313838
 31
0.0
  0
LINE
  5
2FB
330
1F
100
AcDbEntity
  8
0
  6
Continuous
 62
     7
370
     5
100
AcDbLine
 10
-402.6235639383
 20
274.6178832621
 30
0.0
 11
-402.6235639383
 21
263.6777313838
 31
0.0
  0
LINE
  5
2FC
330
1F
100
AcDbEntity
  8
0
  6
Continuous
 62
     7
370
     5
100
AcDbLine
 10
-394.6235639383
 20
119.6178832621
 30
0.0
 11
-394.6235639383
 21
117.7178832621
 31
0.0
  0
LINE
  5
2FD
330
1F
100
AcDbEntity
  8
0
  6
Continuous
 62
     7
370
     5
100
AcDbLine
 10
-394.6235639383
 20
274.6178832621
 30
0.0
 11
-394.6235639383
 21
272.7178832621
 31
0.0
  0
LINE
  5
2FE
330
1F
100
AcDbEntity
  8
0
  6
Continuous
 62
     7
370
     5
100
AcDbLine
 10
-394.6235639383
 20
272.7178832621
 30
0.0
 11
-389.5235639383
 21
272.7178832621
 31
0.0
  0
LINE
  5
2FF
330
1F
100
AcDbEntity
  8
0
  6
Continuous
 62
     7
370
     5
100
AcDbLine
 10
-389.5235639383
 20
274.6178832621
 30
0.0
 11
-385.5235639383
 21
274.6178832621
 31
0.0
  0
LINE
  5
300
330
1F
100
AcDbEntity
  8
0
  6
Continuous
 62
     7
370
     5
100
AcDbLine
 10
-385.5235639383
 20
274.6178832621
 30
0.0
 11
-385.5235639383
 21
277.8178832621
 31
0.0
  0
LINE
  5
301
330
1F
100
AcDbEntity
  8
0
  6
Continuous
 62
     7
370
     5
100
AcDbLine
 10
-385.5235639383
 20
277.8178832621
 30
0.0
 11
-389.5235639383
 21
277.8178832621
 31
0.0
  0
LINE
  5
302
330
1F
100
AcDbEntity
  8
0
  6
Continuous
 62
     7
370
     5
100
AcDbLine
 10
-389.5235639383
 20
279.7178832621
 30
0.0
 11
-394.6235639383
 21
279.7178832621
 31
0.0
  0
LINE
  5
303
330
1F
100
AcDbEntity
  8
0
  6
Continuous
 62
     7
370
     5
100
AcDbLine
 10
-394.6235639383
 20
279.7178832621
 30
0.0
 11
-394.6235639383
 21
277.8178832621
 31
0.0
  0
LINE
  5
304
330
1F
100
AcDbEntity
  8
0
  6
Continuous
 62
     7
370
     5
100
AcDbLine
 10
-394.6235639383
 20
277.8178832621
 30
0.0
 11
-402.6235639383
 21
277.8178832621
 31
0.0
  0
LINE
  5
305
330
1F
100
AcDbEntity
  8
0
  6
Continuous
 62
     7
370
     5
100
AcDbLine
 10
-402.6235639383
 20
288.6777313838
 30
0.0
 11
-402.6235639383
 21
277.8178832621
 31
0.0
  0
LINE
  5
306
330
1F
100
AcDbEntity
  8
0
  6
Continuous
 62
     7
370
     5
100
AcDbLine
 10
-408.6235639383
 20
288.6777313838
 30
0.0
 11
-402.6235639383
 21
288.6777313838
 31
0.0
  0
LINE
  5
307
330
1F
100
AcDbEntity
  8
0
  6
Continuous
 62
     7
370
     5
100
AcDbLine
 10
-408.6235639383
 20
288.6777313838
 30
0.0
 11
-408.6235639383
 21
295.6777313838
 31
0.0
  0
LINE
  5
308
330
1F
100
AcDbEntity
  8
0
  6
Continuous
 62
     7
370
     5
100
AcDbLine
 10
-408.6235639383
 20
295.6777313838
 30
0.0
 11
-402.6235639383
 21
295.6777313838
 31
0.0
  0
LINE
  5
309
330
1F
100
AcDbEntity
  8
0
  6
Continuous
 62
     7
370
     5
100
AcDbLine
 10
-408.6235639383
 20
416.7178832621
 30
0.0
 11
-408.6235639383
 21
423.7178832621
 31
0.0
  0
LINE
  5
30A
330
1F
100
AcDbEntity
  8
0
  6
Continuous
 62
     7
370
     5
100
AcDbLine
 10
-408.6235639383
 20
423.7178832621
 30
0.0
 11
-402.6235639383
 21
423.7178832621
 31
0.0
  0
LINE
  5
30B
330
1F
100
AcDbEntity
  8
0
  6
Continuous
 62
     7
370
     5
100
AcDbLine
 10
-402.6235639383
 20
434.6178832621
 30
0.0
 11
-402.6235639383
 21
423.7178832621
 31
0.0
  0
LINE
  5
30C
330
1F
100
AcDbEntity
  8
0
  6
Continuous
 62
     7
370
     5
100
AcDbLine
 10
-394.6235639383
 20
432.7178832621
 30
0.0
 11
-389.5235639383
 21
432.7178832621
 31
0.0
  0
LINE
  5
30D
330
1F
100
AcDbEntity
  8
0
  6
Continuous
 62
     7
370
     5
100
AcDbLine
 10
-394.6235639383
 20
434.6178832621
 30
0.0
 11
-394.6235639383
 21
432.7178832621
 31
0.0
  0
LINE
  5
30E
330
1F
100
AcDbEntity
  8
0
  6
Continuous
 62
     7
370
     5
100
AcDbLine
 10
-389.5235639383
 20
432.7178832621
 30
0.0
 11
-389.5235639383
 21
434.6178832621
 31
0.0
  0
LINE
  5
30F
330
1F
100
AcDbEntity
  8
0
  6
Continuous
 62
     7
370
     5
100
AcDbLine
 10
-389.5235639383
 20
437.8178832621
 30
0.0
 11
-389.5235639383
 21
439.7178832621
 31
0.0
  0
LINE
  5
310
330
1F
100
AcDbEntity
  8
0
  6
Continuous
 62
     7
370
     5
100
AcDbLine
 10
-302.9393137575
 20
434.3137337804
 30
0.0
 11
-302.0280848725
 21
435.0129442961
 31
0.0
  0
LINE
  5
311
330
1F
100
AcDbEntity
  8
0
  6
Continuous
 62
     7
370
     5
100
AcDbLine
 10
-303.6385242732
 20
433.4025048954
 30
0.0
 11
-302.9393137575
 21
434.3137337804
 31
0.0
  0
LINE
  5
312
330
1F
100
AcDbEntity
  8
0
  6
Continuous
 62
     7
370
     5
100
AcDbLine
 10
-304.2279860052
 20
431.2026037627
 30
0.0
 11
-304.0780663785
 21
432.3413563837
 31
0.0
  0
LINE
  5
313
330
1F
100
AcDbEntity
  8
0
  6
Continuous
 62
     7
370
     5
100
AcDbLine
 10
-304.0780663785
 20
430.0638511418
 30
0.0
 11
-304.2279860052
 21
431.2026037627
 31
0.0
  0
LINE
  5
314
330
1F
100
AcDbEntity
  8
0
  6
Continuous
 62
     7
370
     5
100
AcDbLine
 10
-299.8281837399
 20
426.8028014974
 30
0.0
 11
-300.9669363608
 21
426.9527211241
 31
0.0
  0
LINE
  5
315
330
1F
100
AcDbEntity
  8
0
  6
Continuous
 62
     7
370
     5
100
AcDbLine
 10
-402.6235639383
 20
274.6178832621
 30
0.0
 11
-394.6235639383
 21
274.6178832621
 31
0.0
  0
LINE
  5
316
330
1F
100
AcDbEntity
  8
0
  6
Continuous
 62
     7
370
     5
100
AcDbLine
 10
-389.5235639383
 20
272.7178832621
 30
0.0
 11
-389.5235639383
 21
274.6178832621
 31
0.0
  0
LINE
  5
317
330
1F
100
AcDbEntity
  8
0
  6
Continuous
 62
     7
370
     5
100
AcDbLine
 10
-389.5235639383
 20
277.8178832621
 30
0.0
 11
-389.5235639383
 21
279.7178832621
 31
0.0
  0
LINE
  5
318
330
1F
100
AcDbEntity
  8
0
  6
Continuous
 62
     7
370
     5
100
AcDbLine
 10
-402.6235639383
 20
416.7178832621
 30
0.0
 11
-402.6235639383
 21
295.6777313838
 31
0.0
  0
LINE
  5
319
330
1F
100
AcDbEntity
  8
0
  6
Continuous
 62
     7
370
     5
100
AcDbLine
 10
-408.6235639383
 20
416.7178832621
 30
0.0
 11
-402.6235639383
 21
416.7178832621
 31
0.0
  0
LINE
  5
31A
330
1F
100
AcDbEntity
  8
0
  6
Continuous
 62
     7
370
     5
100
AcDbLine
 10
-402.6235639383
 20
434.6178832621
 30
0.0
 11
-394.6235639383
 21
434.6178832621
 31
0.0
  0
LINE
  5
31B
330
1F
100
AcDbEntity
  8
0
  6
Continuous
 62
     7
370
     5
100
AcDbLine
 10
-151.9203193744
 20
129.9625918849
 30
0.0
 11
-151.9203193744
 21
122.9625918849
 31
0.0
  0
LINE
  5
31C
330
1F
100
AcDbEntity
  8
0
  6
Continuous
 62
     7
370
     5
100
AcDbLine
 10
-177.8563222162
 20
99.4703067062
 30
0.0
 11
-185.8674585139
 21
99.4703067062
 31
0.0
  0
LINE
  5
31D
330
1F
100
AcDbEntity
  8
0
  6
Continuous
 62
     7
370
     5
100
AcDbLine
 10
-185.9187905464
 20
91.470636092
 30
0.0
 11
-177.8563222162
 21
91.4731078315
 31
0.0
  0
LINE
  5
31E
330
1F
100
AcDbEntity
  8
0
  6
Continuous
 62
     7
370
     5
100
AcDbLine
 10
-165.9203193744
 20
113.9625918849
 30
0.0
 11
-171.0203193744
 21
113.9625918849
 31
0.0
  0
LINE
  5
31F
330
1F
100
AcDbEntity
  8
0
  6
Continuous
 62
     7
370
     5
100
AcDbLine
 10
-171.0203193744
 20
113.9625918849
 30
0.0
 11
-171.0203193744
 21
112.0625918849
 31
0.0
  0
LINE
  5
320
330
1F
100
AcDbEntity
  8
0
  6
Continuous
 62
     7
370
     5
100
AcDbLine
 10
-171.0203193744
 20
112.0625918849
 30
0.0
 11
-175.0203193744
 21
112.0625918849
 31
0.0
  0
LINE
  5
321
330
1F
100
AcDbEntity
  8
0
  6
Continuous
 62
     7
370
     5
100
AcDbLine
 10
-175.0203193744
 20
112.0625918849
 30
0.0
 11
-175.0203193744
 21
108.8625918849
 31
0.0
  0
LINE
  5
322
330
1F
100
AcDbEntity
  8
0
  6
Continuous
 62
     7
370
     5
100
AcDbLine
 10
-175.0203193744
 20
108.8625918849
 30
0.0
 11
-171.0203193744
 21
108.8625918849
 31
0.0
  0
LINE
  5
323
330
1F
100
AcDbEntity
  8
0
  6
Continuous
 62
     7
370
     5
100
AcDbLine
 10
-171.0203193744
 20
108.8625918849
 30
0.0
 11
-171.0203193744
 21
106.9625918849
 31
0.0
  0
LINE
  5
324
330
1F
100
AcDbEntity
  8
0
  6
Continuous
 62
     7
370
     5
100
AcDbLine
 10
-171.0203193744
 20
106.9625918849
 30
0.0
 11
-165.9203193744
 21
106.9625918849
 31
0.0
  0
LINE
  5
325
330
1F
100
AcDbEntity
  8
0
  6
Continuous
 62
     7
370
     5
100
AcDbLine
 10
-165.9203193744
 20
106.9625918849
 30
0.0
 11
-165.9203193744
 21
108.8625918849
 31
0.0
  0
LINE
  5
326
330
1F
100
AcDbEntity
  8
0
  6
Continuous
 62
     7
370
     5
100
AcDbLine
 10
-165.9203193744
 20
108.8625918849
 30
0.0
 11
-157.9203193744
 21
108.8625918849
 31
0.0
  0
LINE
  5
327
330
1F
100
AcDbEntity
  8
0
  6
Continuous
 62
     7
370
     5
100
AcDbLine
 10
-157.9203193744
 20
87.4708158508
 30
0.0
 11
-157.9203193744
 21
108.8625918849
 31
0.0
  0
LINE
  5
328
330
1F
100
AcDbEntity
  8
0
  6
Continuous
 62
     7
370
     5
100
AcDbLine
 10
-308.713542467
 20
87.4708158508
 30
0.0
 11
-157.9203193744
 21
87.4708158508
 31
0.0
  0
LINE
  5
329
330
1F
100
AcDbEntity
  8
0
  6
Continuous
 62
     7
370
     5
100
AcDbLine
 10
-310.7134525876
 20
85.4709057302
 30
0.0
 11
-308.713542467
 21
87.4708158508
 31
0.0
  0
LINE
  5
32A
330
1F
100
AcDbEntity
  8
0
  6
Continuous
 62
     7
370
     5
100
AcDbLine
 10
-330.7125537935
 20
85.4709057302
 30
0.0
 11
-310.7134525876
 21
85.4709057302
 31
0.0
  0
LINE
  5
32B
330
1F
100
AcDbEntity
  8
0
  6
Continuous
 62
     7
370
     5
100
AcDbLine
 10
-335.712329095
 20
90.4706810317
 30
0.0
 11
-330.7125537935
 21
85.4709057302
 31
0.0
  0
LINE
  5
32C
330
1F
100
AcDbEntity
  8
0
  6
Continuous
 62
     7
370
     5
100
AcDbLine
 10
-335.712329095
 20
106.0699799723
 30
0.0
 11
-335.712329095
 21
90.4706810317
 31
0.0
  0
LINE
  5
32D
330
1F
100
AcDbEntity
  8
0
  6
Continuous
 62
     7
370
     5
100
AcDbLine
 10
-330.7125537935
 20
111.0697552738
 30
0.0
 11
-335.712329095
 21
106.0699799723
 31
0.0
  0
LINE
  5
32E
330
1F
100
AcDbEntity
  8
0
  6
Continuous
 62
     7
370
     5
100
AcDbLine
 10
-260.7156995728
 20
111.0697552738
 30
0.0
 11
-330.7125537935
 21
111.0697552738
 31
0.0
  0
LINE
  5
32F
330
1F
100
AcDbEntity
  8
0
  6
Continuous
 62
     7
370
     5
100
AcDbLine
 10
-259.5769469518
 20
111.2196749005
 30
0.0
 11
-260.7156995728
 21
111.0697552738
 31
0.0
  0
LINE
  5
330
330
1F
100
AcDbEntity
  8
0
  6
Continuous
 62
     7
370
     5
100
AcDbLine
 10
-258.5157984401
 20
111.6592170057
 30
0.0
 11
-259.5769469518
 21
111.2196749005
 31
0.0
  0
LINE
  5
331
330
1F
100
AcDbEntity
  8
0
  6
Continuous
 62
     7
370
     5
100
AcDbLine
 10
-257.6045695551
 20
112.3584275214
 30
0.0
 11
-258.5157984401
 21
111.6592170057
 31
0.0
  0
LINE
  5
332
330
1F
100
AcDbEntity
  8
0
  6
Continuous
 62
     7
370
     5
100
AcDbLine
 10
-256.9053590394
 20
113.2696564064
 30
0.0
 11
-257.6045695551
 21
112.3584275214
 31
0.0
  0
LINE
  5
333
330
1F
100
AcDbEntity
  8
0
  6
Continuous
 62
     7
370
     5
100
AcDbLine
 10
-256.4658169342
 20
114.3308049182
 30
0.0
 11
-256.9053590394
 21
113.2696564064
 31
0.0
  0
LINE
  5
334
330
1F
100
AcDbEntity
  8
0
  6
Continuous
 62
     7
370
     5
100
AcDbLine
 10
-256.3158973075
 20
115.4778713844
 30
0.0
 11
-256.4658169342
 21
114.3308049182
 31
0.0
  0
LINE
  5
335
330
1F
100
AcDbEntity
  8
0
  6
Continuous
 62
     7
370
     5
100
AcDbLine
 10
-256.4658169342
 20
116.6166240053
 30
0.0
 11
-256.3158973075
 21
115.4778713844
 31
0.0
  0
LINE
  5
336
330
1F
100
AcDbEntity
  8
0
  6
Continuous
 62
     7
370
     5
100
AcDbLine
 10
-256.9053590394
 20
117.677772517
 30
0.0
 11
-256.4658169342
 21
116.6166240053
 31
0.0
  0
LINE
  5
337
330
1F
100
AcDbEntity
  8
0
  6
Continuous
 62
     7
370
     5
100
AcDbLine
 10
-257.6045695551
 20
118.589001402
 30
0.0
 11
-256.9053590394
 21
117.677772517
 31
0.0
  0
LINE
  5
338
330
1F
100
AcDbEntity
  8
0
  6
Continuous
 62
     7
370
     5
100
AcDbLine
 10
-258.5157984401
 20
119.2882119177
 30
0.0
 11
-257.6045695551
 21
118.589001402
 31
0.0
  0
LINE
  5
339
330
1F
100
AcDbEntity
  8
0
  6
Continuous
 62
     7
370
     5
100
AcDbLine
 10
-259.5769469518
 20
119.727754023
 30
0.0
 11
-258.5157984401
 21
119.2882119177
 31
0.0
  0
LINE
  5
33A
330
1F
100
AcDbEntity
  8
0
  6
Continuous
 62
     7
370
     5
100
AcDbLine
 10
-260.7156995728
 20
119.8776736497
 30
0.0
 11
-259.5769469518
 21
119.727754023
 31
0.0
  0
LINE
  5
33B
330
1F
100
AcDbEntity
  8
0
  6
Continuous
 62
     7
370
     5
100
AcDbLine
 10
-330.7125537935
 20
119.8776736497
 30
0.0
 11
-260.7156995728
 21
119.8776736497
 31
0.0
  0
LINE
  5
33C
330
1F
100
AcDbEntity
  8
0
  6
Continuous
 62
     7
370
     5
100
AcDbLine
 10
-335.712329095
 20
124.8774489511
 30
0.0
 11
-330.7125537935
 21
119.8776736497
 31
0.0
  0
LINE
  5
33D
330
1F
100
AcDbEntity
  8
0
  6
Continuous
 62
     7
370
     5
100
AcDbLine
 10
-335.712329095
 20
132.4771074094
 30
0.0
 11
-335.712329095
 21
124.8774489511
 31
0.0
  0
LINE
  5
33E
330
1F
100
AcDbEntity
  8
0
  6
Continuous
 62
     7
370
     5
100
AcDbLine
 10
-183.3191779059
 20
455.4625918849
 30
0.0
 11
-335.712329095
 21
132.4771074094
 31
0.0
  0
LINE
  5
33F
330
1F
100
AcDbEntity
  8
0
  6
Continuous
 62
     7
370
     5
100
AcDbLine
 10
-157.9203193744
 20
455.4625918849
 30
0.0
 11
-183.3191779059
 21
455.4625918849
 31
0.0
  0
LINE
  5
340
330
1F
100
AcDbEntity
  8
0
  6
Continuous
 62
     7
370
     5
100
AcDbLine
 10
-157.9203193744
 20
444.9625918849
 30
0.0
 11
-157.9203193744
 21
455.4625918849
 31
0.0
  0
LINE
  5
341
330
1F
100
AcDbEntity
  8
0
  6
Continuous
 62
     7
370
     5
100
AcDbLine
 10
-151.9203193744
 20
444.9625918849
 30
0.0
 11
-157.9203193744
 21
444.9625918849
 31
0.0
  0
LINE
  5
342
330
1F
100
AcDbEntity
  8
0
  6
Continuous
 62
     7
370
     5
100
AcDbLine
 10
-151.9203193744
 20
444.9625918849
 30
0.0
 11
-151.9203193744
 21
437.9625918849
 31
0.0
  0
LINE
  5
343
330
1F
100
AcDbEntity
  8
0
  6
Continuous
 62
     7
370
     5
100
AcDbLine
 10
-151.9203193744
 20
437.9625918849
 30
0.0
 11
-157.9203193744
 21
437.9625918849
 31
0.0
  0
LINE
  5
344
330
1F
100
AcDbEntity
  8
0
  6
Continuous
 62
     7
370
     5
100
AcDbLine
 10
-157.9203193744
 20
427.0625918849
 30
0.0
 11
-157.9203193744
 21
437.9625918849
 31
0.0
  0
LINE
  5
345
330
1F
100
AcDbEntity
  8
0
  6
Continuous
 62
     7
370
     5
100
AcDbLine
 10
-157.9203193744
 20
427.0625918849
 30
0.0
 11
-165.9203193744
 21
427.0625918849
 31
0.0
  0
LINE
  5
346
330
1F
100
AcDbEntity
  8
0
  6
Continuous
 62
     7
370
     5
100
AcDbLine
 10
-165.9203193744
 20
427.0625918849
 30
0.0
 11
-165.9203193744
 21
428.9625918849
 31
0.0
  0
LINE
  5
347
330
1F
100
AcDbEntity
  8
0
  6
Continuous
 62
     7
370
     5
100
AcDbLine
 10
-165.9203193744
 20
428.9625918849
 30
0.0
 11
-171.0203193744
 21
428.9625918849
 31
0.0
  0
LINE
  5
348
330
1F
100
AcDbEntity
  8
0
  6
Continuous
 62
     7
370
     5
100
AcDbLine
 10
-171.0203193744
 20
428.9625918849
 30
0.0
 11
-171.0203193744
 21
427.0625918849
 31
0.0
  0
LINE
  5
349
330
1F
100
AcDbEntity
  8
0
  6
Continuous
 62
     7
370
     5
100
AcDbLine
 10
-171.0203193744
 20
427.0625918849
 30
0.0
 11
-175.0203193744
 21
427.0625918849
 31
0.0
  0
LINE
  5
34A
330
1F
100
AcDbEntity
  8
0
  6
Continuous
 62
     7
370
     5
100
AcDbLine
 10
-175.0203193744
 20
427.0625918849
 30
0.0
 11
-175.0203193744
 21
423.8625918849
 31
0.0
  0
LINE
  5
34B
330
1F
100
AcDbEntity
  8
0
  6
Continuous
 62
     7
370
     5
100
AcDbLine
 10
-175.0203193744
 20
423.8625918849
 30
0.0
 11
-171.0203193744
 21
423.8625918849
 31
0.0
  0
LINE
  5
34C
330
1F
100
AcDbEntity
  8
0
  6
Continuous
 62
     7
370
     5
100
AcDbLine
 10
-171.0203193744
 20
423.8625918849
 30
0.0
 11
-171.0203193744
 21
421.9625918849
 31
0.0
  0
LINE
  5
34D
330
1F
100
AcDbEntity
  8
0
  6
Continuous
 62
     7
370
     5
100
AcDbLine
 10
-171.0203193744
 20
421.9625918849
 30
0.0
 11
-165.9203193744
 21
421.9625918849
 31
0.0
  0
LINE
  5
34E
330
1F
100
AcDbEntity
  8
0
  6
Continuous
 62
     7
370
     5
100
AcDbLine
 10
-165.9203193744
 20
421.9625918849
 30
0.0
 11
-165.9203193744
 21
423.8625918849
 31
0.0
  0
LINE
  5
34F
330
1F
100
AcDbEntity
  8
0
  6
Continuous
 62
     7
370
     5
100
AcDbLine
 10
-165.9203193744
 20
423.8625918849
 30
0.0
 11
-157.9203193744
 21
423.8625918849
 31
0.0
  0
LINE
  5
350
330
1F
100
AcDbEntity
  8
0
  6
Continuous
 62
     7
370
     5
100
AcDbLine
 10
-157.9203193744
 20
412.9625918849
 30
0.0
 11
-157.9203193744
 21
423.8625918849
 31
0.0
  0
LINE
  5
351
330
1F
100
AcDbEntity
  8
0
  6
Continuous
 62
     7
370
     5
100
AcDbLine
 10
-151.9203193744
 20
412.9625918849
 30
0.0
 11
-157.9203193744
 21
412.9625918849
 31
0.0
  0
LINE
  5
352
330
1F
100
AcDbEntity
  8
0
  6
Continuous
 62
     7
370
     5
100
AcDbLine
 10
-151.9203193744
 20
412.9625918849
 30
0.0
 11
-151.9203193744
 21
405.9625918849
 31
0.0
  0
LINE
  5
353
330
1F
100
AcDbEntity
  8
0
  6
Continuous
 62
     7
370
     5
100
AcDbLine
 10
-151.9203193744
 20
405.9625918849
 30
0.0
 11
-157.9203193744
 21
405.9625918849
 31
0.0
  0
LINE
  5
354
330
1F
100
AcDbEntity
  8
0
  6
Continuous
 62
     7
370
     5
100
AcDbLine
 10
-157.9203193744
 20
289.9625918849
 30
0.0
 11
-157.9203193744
 21
405.9625918849
 31
0.0
  0
LINE
  5
355
330
1F
100
AcDbEntity
  8
0
  6
Continuous
 62
     7
370
     5
100
AcDbLine
 10
-151.9203193744
 20
289.9625918849
 30
0.0
 11
-157.9203193744
 21
289.9625918849
 31
0.0
  0
LINE
  5
356
330
1F
100
AcDbEntity
  8
0
  6
Continuous
 62
     7
370
     5
100
AcDbLine
 10
-151.9203193744
 20
289.9625918849
 30
0.0
 11
-151.9203193744
 21
282.9625918849
 31
0.0
  0
LINE
  5
357
330
1F
100
AcDbEntity
  8
0
  6
Continuous
 62
     7
370
     5
100
AcDbLine
 10
-151.9203193744
 20
282.9625918849
 30
0.0
 11
-157.9203193744
 21
282.9625918849
 31
0.0
  0
LINE
  5
358
330
1F
100
AcDbEntity
  8
0
  6
Continuous
 62
     7
370
     5
100
AcDbLine
 10
-157.9203193744
 20
272.0625918849
 30
0.0
 11
-157.9203193744
 21
282.9625918849
 31
0.0
  0
LINE
  5
359
330
1F
100
AcDbEntity
  8
0
  6
Continuous
 62
     7
370
     5
100
AcDbLine
 10
-157.9203193744
 20
272.0625918849
 30
0.0
 11
-165.9203193744
 21
272.0625918849
 31
0.0
  0
LINE
  5
35A
330
1F
100
AcDbEntity
  8
0
  6
Continuous
 62
     7
370
     5
100
AcDbLine
 10
-165.9203193744
 20
272.0625918849
 30
0.0
 11
-165.9203193744
 21
273.9625918849
 31
0.0
  0
LINE
  5
35B
330
1F
100
AcDbEntity
  8
0
  6
Continuous
 62
     7
370
     5
100
AcDbLine
 10
-165.9203193744
 20
273.9625918849
 30
0.0
 11
-171.0203193744
 21
273.9625918849
 31
0.0
  0
LINE
  5
35C
330
1F
100
AcDbEntity
  8
0
  6
Continuous
 62
     7
370
     5
100
AcDbLine
 10
-171.0203193744
 20
273.9625918849
 30
0.0
 11
-171.0203193744
 21
272.0625918849
 31
0.0
  0
LINE
  5
35D
330
1F
100
AcDbEntity
  8
0
  6
Continuous
 62
     7
370
     5
100
AcDbLine
 10
-171.0203193744
 20
272.0625918849
 30
0.0
 11
-175.0203193744
 21
272.0625918849
 31
0.0
  0
LINE
  5
35E
330
1F
100
AcDbEntity
  8
0
  6
Continuous
 62
     7
370
     5
100
AcDbLine
 10
-175.0203193744
 20
272.0625918849
 30
0.0
 11
-175.0203193744
 21
268.8625918849
 31
0.0
  0
LINE
  5
35F
330
1F
100
AcDbEntity
  8
0
  6
Continuous
 62
     7
370
     5
100
AcDbLine
 10
-175.0203193744
 20
268.8625918849
 30
0.0
 11
-171.0203193744
 21
268.8625918849
 31
0.0
  0
LINE
  5
360
330
1F
100
AcDbEntity
  8
0
  6
Continuous
 62
     7
370
     5
100
AcDbLine
 10
-171.0203193744
 20
268.8625918849
 30
0.0
 11
-171.0203193744
 21
266.9625918849
 31
0.0
  0
LINE
  5
361
330
1F
100
AcDbEntity
  8
0
  6
Continuous
 62
     7
370
     5
100
AcDbLine
 10
-171.0203193744
 20
266.9625918849
 30
0.0
 11
-165.9203193744
 21
266.9625918849
 31
0.0
  0
LINE
  5
362
330
1F
100
AcDbEntity
  8
0
  6
Continuous
 62
     7
370
     5
100
AcDbLine
 10
-165.9203193744
 20
266.9625918849
 30
0.0
 11
-165.9203193744
 21
268.8625918849
 31
0.0
  0
LINE
  5
363
330
1F
100
AcDbEntity
  8
0
  6
Continuous
 62
     7
370
     5
100
AcDbLine
 10
-165.9203193744
 20
268.8625918849
 30
0.0
 11
-157.9203193744
 21
268.8625918849
 31
0.0
  0
LINE
  5
364
330
1F
100
AcDbEntity
  8
0
  6
Continuous
 62
     7
370
     5
100
AcDbLine
 10
-157.9203193744
 20
257.9625918849
 30
0.0
 11
-157.9203193744
 21
268.8625918849
 31
0.0
  0
LINE
  5
365
330
1F
100
AcDbEntity
  8
0
  6
Continuous
 62
     7
370
     5
100
AcDbLine
 10
-151.9203193744
 20
257.9625918849
 30
0.0
 11
-157.9203193744
 21
257.9625918849
 31
0.0
  0
LINE
  5
366
330
1F
100
AcDbEntity
  8
0
  6
Continuous
 62
     7
370
     5
100
AcDbLine
 10
-151.9203193744
 20
257.9625918849
 30
0.0
 11
-151.9203193744
 21
250.9625918849
 31
0.0
  0
LINE
  5
367
330
1F
100
AcDbEntity
  8
0
  6
Continuous
 62
     7
370
     5
100
AcDbLine
 10
-151.9203193744
 20
250.9625918849
 30
0.0
 11
-157.9203193744
 21
250.9625918849
 31
0.0
  0
LINE
  5
368
330
1F
100
AcDbEntity
  8
0
  6
Continuous
 62
     7
370
     5
100
AcDbLine
 10
-157.9203193744
 20
129.9625918849
 30
0.0
 11
-157.9203193744
 21
250.9625918849
 31
0.0
  0
LINE
  5
369
330
1F
100
AcDbEntity
  8
0
  6
Continuous
 62
     7
370
     5
100
AcDbLine
 10
-151.9203193744
 20
129.9625918849
 30
0.0
 11
-157.9203193744
 21
129.9625918849
 31
0.0
  0
LINE
  5
36A
330
1F
100
AcDbEntity
  8
0
  6
Continuous
 62
     7
370
     5
100
AcDbLine
 10
-151.9203193744
 20
122.9625918849
 30
0.0
 11
-157.9203193744
 21
122.9625918849
 31
0.0
  0
LINE
  5
36B
330
1F
100
AcDbEntity
  8
0
  6
Continuous
 62
     7
370
     5
100
AcDbLine
 10
-157.9203193744
 20
112.0625918849
 30
0.0
 11
-157.9203193744
 21
122.9625918849
 31
0.0
  0
LINE
  5
36C
330
1F
100
AcDbEntity
  8
0
  6
Continuous
 62
     7
370
     5
100
AcDbLine
 10
-157.9203193744
 20
112.0625918849
 30
0.0
 11
-165.9203193744
 21
112.0625918849
 31
0.0
  0
LINE
  5
36D
330
1F
100
AcDbEntity
  8
0
  6
Continuous
 62
     7
370
     5
100
AcDbLine
 10
-165.9203193744
 20
112.0625918849
 30
0.0
 11
-165.9203193744
 21
113.9625918849
 31
0.0
  0
LINE
  5
36E
330
1F
100
AcDbEntity
  8
0
  6
Continuous
 62
     7
370
     5
100
AcDbLine
 10
-100.9157264423
 20
462.6159859495
 30
0.0
 11
-100.9157264423
 21
456.6159859495
 31
0.0
  0
LINE
  5
36F
330
1F
100
AcDbEntity
  8
0
  6
Continuous
 62
     7
370
     5
100
AcDbLine
 10
-90.9157264423
 20
462.6159859495
 30
0.0
 11
-90.9157264423
 21
456.6159859495
 31
0.0
  0
LINE
  5
370
330
1F
100
AcDbEntity
  8
0
  6
Continuous
 62
     7
370
     5
100
AcDbLine
 10
236.0842735577
 20
456.6159859495
 30
0.0
 11
-90.9157264423
 21
456.6159859495
 31
0.0
  0
LINE
  5
371
330
1F
100
AcDbEntity
  8
0
  6
Continuous
 62
     7
370
     5
100
AcDbLine
 10
-100.9157264423
 20
456.6159859495
 30
0.0
 11
-114.3157264423
 21
456.6159859495
 31
0.0
  0
LINE
  5
372
330
1F
100
AcDbEntity
  8
0
  6
Continuous
 62
     7
370
     5
100
AcDbLine
 10
211.4842735577
 20
414.2159859495
 30
0.0
 11
217.6842735577
 21
414.2159859495
 31
0.0
  0
LINE
  5
373
330
1F
100
AcDbEntity
  8
0
  6
Continuous
 62
     7
370
     5
100
AcDbLine
 10
211.4842735577
 20
407.0159859495
 30
0.0
 11
211.4842735577
 21
414.2159859495
 31
0.0
  0
LINE
  5
374
330
1F
100
AcDbEntity
  8
0
  6
Continuous
 62
     7
370
     5
100
AcDbLine
 10
217.6842735577
 20
407.0159859495
 30
0.0
 11
211.4842735577
 21
407.0159859495
 31
0.0
  0
LINE
  5
375
330
1F
100
AcDbEntity
  8
0
  6
Continuous
 62
     7
370
     5
100
AcDbLine
 10
217.6842735577
 20
414.2159859495
 30
0.0
 11
217.6842735577
 21
407.0159859495
 31
0.0
  0
LINE
  5
376
330
1F
100
AcDbEntity
  8
0
  6
Continuous
 62
     7
370
     5
100
AcDbLine
 10
211.4842735577
 20
259.1159859495
 30
0.0
 11
217.6842735577
 21
259.1159859495
 31
0.0
  0
LINE
  5
377
330
1F
100
AcDbEntity
  8
0
  6
Continuous
 62
     7
370
     5
100
AcDbLine
 10
211.4842735577
 20
251.9159859495
 30
0.0
 11
211.4842735577
 21
259.1159859495
 31
0.0
  0
LINE
  5
378
330
1F
100
AcDbEntity
  8
0
  6
Continuous
 62
     7
370
     5
100
AcDbLine
 10
217.6842735577
 20
251.9159859495
 30
0.0
 11
211.4842735577
 21
251.9159859495
 31
0.0
  0
LINE
  5
379
330
1F
100
AcDbEntity
  8
0
  6
Continuous
 62
     7
370
     5
100
AcDbLine
 10
217.6842735577
 20
259.1159859495
 30
0.0
 11
217.6842735577
 21
251.9159859495
 31
0.0
  0
LINE
  5
37A
330
1F
100
AcDbEntity
  8
0
  6
Continuous
 62
     7
370
     5
100
AcDbLine
 10
217.6842735577
 20
131.2159859495
 30
0.0
 11
217.6842735577
 21
124.0159859495
 31
0.0
  0
LINE
  5
37B
330
1F
100
AcDbEntity
  8
0
  6
Continuous
 62
     7
370
     5
100
AcDbLine
 10
211.4842735577
 20
131.2159859495
 30
0.0
 11
217.6842735577
 21
131.2159859495
 31
0.0
  0
LINE
  5
37C
330
1F
100
AcDbEntity
  8
0
  6
Continuous
 62
     7
370
     5
100
AcDbLine
 10
211.4842735577
 20
124.0159859495
 30
0.0
 11
211.4842735577
 21
131.2159859495
 31
0.0
  0
LINE
  5
37D
330
1F
100
AcDbEntity
  8
0
  6
Continuous
 62
     7
370
     5
100
AcDbLine
 10
217.6842735577
 20
124.0159859495
 30
0.0
 11
211.4842735577
 21
124.0159859495
 31
0.0
  0
LINE
  5
37E
330
1F
100
AcDbEntity
  8
0
  6
Continuous
 62
     7
370
     5
100
AcDbLine
 10
257.0842735577
 20
98.9733456673
 30
0.0
 11
245.0842735577
 21
98.9733456673
 31
0.0
  0
LINE
  5
37F
330
1F
100
AcDbEntity
  8
0
  6
Continuous
 62
     7
370
     5
100
AcDbLine
 10
245.0842735577
 20
104.9733456673
 30
0.0
 11
257.0842735577
 21
104.9733456673
 31
0.0
  0
LINE
  5
380
330
1F
100
AcDbEntity
  8
0
  6
Continuous
 62
     7
370
     5
100
AcDbLine
 10
281.2842735577
 20
131.7733456673
 30
0.0
 11
274.8842735577
 21
131.7733456673
 31
0.0
  0
LINE
  5
381
330
1F
100
AcDbEntity
  8
0
  6
Continuous
 62
     7
370
     5
100
AcDbLine
 10
281.2842735577
 20
142.1733456673
 30
0.0
 11
281.2842735577
 21
131.7733456673
 31
0.0
  0
LINE
  5
382
330
1F
100
AcDbEntity
  8
0
  6
Continuous
 62
     7
370
     5
100
AcDbLine
 10
274.8842735577
 20
142.1733456673
 30
0.0
 11
281.2842735577
 21
142.1733456673
 31
0.0
  0
LINE
  5
383
330
1F
100
AcDbEntity
  8
0
  6
Continuous
 62
     7
370
     5
100
AcDbLine
 10
274.8842735577
 20
131.7733456673
 30
0.0
 11
274.8842735577
 21
142.1733456673
 31
0.0
  0
LINE
  5
384
330
1F
100
AcDbEntity
  8
0
  6
Continuous
 62
     7
370
     5
100
AcDbLine
 10
-77.7157264423
 20
131.7733456673
 30
0.0
 11
-77.7157264423
 21
142.1733456673
 31
0.0
  0
LINE
  5
385
330
1F
100
AcDbEntity
  8
0
  6
Continuous
 62
     7
370
     5
100
AcDbLine
 10
-77.7157264423
 20
142.1733456673
 30
0.0
 11
-84.1157264423
 21
142.1733456673
 31
0.0
  0
LINE
  5
386
330
1F
100
AcDbEntity
  8
0
  6
Continuous
 62
     7
370
     5
100
AcDbLine
 10
-84.1157264423
 20
142.1733456673
 30
0.0
 11
-84.1157264423
 21
131.7733456673
 31
0.0
  0
LINE
  5
387
330
1F
100
AcDbEntity
  8
0
  6
Continuous
 62
     7
370
     5
100
AcDbLine
 10
-84.1157264423
 20
131.7733456673
 30
0.0
 11
-77.7157264423
 21
131.7733456673
 31
0.0
  0
LINE
  5
388
330
1F
100
AcDbEntity
  8
0
  6
Continuous
 62
     7
370
     5
100
AcDbLine
 10
-136.1157264423
 20
142.1733456673
 30
0.0
 11
-136.1157264423
 21
131.7733456673
 31
0.0
  0
LINE
  5
389
330
1F
100
AcDbEntity
  8
0
  6
Continuous
 62
     7
370
     5
100
AcDbLine
 10
-136.1157264423
 20
131.7733456673
 30
0.0
 11
-129.7157264423
 21
131.7733456673
 31
0.0
  0
LINE
  5
38A
330
1F
100
AcDbEntity
  8
0
  6
Continuous
 62
     7
370
     5
100
AcDbLine
 10
-129.7157264423
 20
131.7733456673
 30
0.0
 11
-129.7157264423
 21
142.1733456673
 31
0.0
  0
LINE
  5
38B
330
1F
100
AcDbEntity
  8
0
  6
Continuous
 62
     7
370
     5
100
AcDbLine
 10
-129.7157264423
 20
142.1733456673
 30
0.0
 11
-136.1157264423
 21
142.1733456673
 31
0.0
  0
LINE
  5
38C
330
1F
100
AcDbEntity
  8
0
  6
Continuous
 62
     7
370
     5
100
AcDbLine
 10
222.8842735577
 20
142.1733456673
 30
0.0
 11
229.2842735577
 21
142.1733456673
 31
0.0
  0
LINE
  5
38D
330
1F
100
AcDbEntity
  8
0
  6
Continuous
 62
     7
370
     5
100
AcDbLine
 10
222.8842735577
 20
131.7733456673
 30
0.0
 11
222.8842735577
 21
142.1733456673
 31
0.0
  0
LINE
  5
38E
330
1F
100
AcDbEntity
  8
0
  6
Continuous
 62
     7
370
     5
100
AcDbLine
 10
229.2842735577
 20
131.7733456673
 30
0.0
 11
222.8842735577
 21
131.7733456673
 31
0.0
  0
LINE
  5
38F
330
1F
100
AcDbEntity
  8
0
  6
Continuous
 62
     7
370
     5
100
AcDbLine
 10
229.2842735577
 20
142.1733456673
 30
0.0
 11
229.2842735577
 21
131.7733456673
 31
0.0
  0
LINE
  5
390
330
1F
100
AcDbEntity
  8
0
  6
Continuous
 62
     7
370
     5
100
AcDbLine
 10
-111.9157264423
 20
98.9733456673
 30
0.0
 11
-99.9157264423
 21
98.9733456673
 31
0.0
  0
LINE
  5
391
330
1F
100
AcDbEntity
  8
0
  6
Continuous
 62
     7
370
     5
100
AcDbLine
 10
-99.9157264423
 20
104.9733456673
 30
0.0
 11
-111.9157264423
 21
104.9733456673
 31
0.0
  0
LINE
  5
392
330
1F
100
AcDbEntity
  8
0
  6
Continuous
 62
     7
370
     5
100
AcDbLine
 10
-66.3157264423
 20
131.2159859495
 30
0.0
 11
-72.5157264423
 21
131.2159859495
 31
0.0
  0
LINE
  5
393
330
1F
100
AcDbEntity
  8
0
  6
Continuous
 62
     7
370
     5
100
AcDbLine
 10
-72.5157264423
 20
131.2159859495
 30
0.0
 11
-72.5157264423
 21
124.0159859495
 31
0.0
  0
LINE
  5
394
330
1F
100
AcDbEntity
  8
0
  6
Continuous
 62
     7
370
     5
100
AcDbLine
 10
-72.5157264423
 20
124.0159859495
 30
0.0
 11
-66.3157264423
 21
124.0159859495
 31
0.0
  0
LINE
  5
395
330
1F
100
AcDbEntity
  8
0
  6
Continuous
 62
     7
370
     5
100
AcDbLine
 10
-66.3157264423
 20
124.0159859495
 30
0.0
 11
-66.3157264423
 21
131.2159859495
 31
0.0
  0
LINE
  5
396
330
1F
100
AcDbEntity
  8
0
  6
Continuous
 62
     7
370
     5
100
AcDbLine
 10
-72.5157264423
 20
284.1159859495
 30
0.0
 11
-66.3157264423
 21
284.1159859495
 31
0.0
  0
LINE
  5
397
330
1F
100
AcDbEntity
  8
0
  6
Continuous
 62
     7
370
     5
100
AcDbLine
 10
-66.3157264423
 20
284.1159859495
 30
0.0
 11
-66.3157264423
 21
291.3159859495
 31
0.0
  0
LINE
  5
398
330
1F
100
AcDbEntity
  8
0
  6
Continuous
 62
     7
370
     5
100
AcDbLine
 10
-66.3157264423
 20
291.3159859495
 30
0.0
 11
-72.5157264423
 21
291.3159859495
 31
0.0
  0
LINE
  5
399
330
1F
100
AcDbEntity
  8
0
  6
Continuous
 62
     7
370
     5
100
AcDbLine
 10
-72.5157264423
 20
291.3159859495
 30
0.0
 11
-72.5157264423
 21
284.1159859495
 31
0.0
  0
LINE
  5
39A
330
1F
100
AcDbEntity
  8
0
  6
Continuous
 62
     7
370
     5
100
AcDbLine
 10
-66.3157264423
 20
251.9159859495
 30
0.0
 11
-66.3157264423
 21
259.1159859495
 31
0.0
  0
LINE
  5
39B
330
1F
100
AcDbEntity
  8
0
  6
Continuous
 62
     7
370
     5
100
AcDbLine
 10
-66.3157264423
 20
259.1159859495
 30
0.0
 11
-72.5157264423
 21
259.1159859495
 31
0.0
  0
LINE
  5
39C
330
1F
100
AcDbEntity
  8
0
  6
Continuous
 62
     7
370
     5
100
AcDbLine
 10
-72.5157264423
 20
259.1159859495
 30
0.0
 11
-72.5157264423
 21
251.9159859495
 31
0.0
  0
LINE
  5
39D
330
1F
100
AcDbEntity
  8
0
  6
Continuous
 62
     7
370
     5
100
AcDbLine
 10
-72.5157264423
 20
251.9159859495
 30
0.0
 11
-66.3157264423
 21
251.9159859495
 31
0.0
  0
LINE
  5
39E
330
1F
100
AcDbEntity
  8
0
  6
Continuous
 62
     7
370
     5
100
AcDbLine
 10
-72.5157264423
 20
439.0159859495
 30
0.0
 11
-66.3157264423
 21
439.0159859495
 31
0.0
  0
LINE
  5
39F
330
1F
100
AcDbEntity
  8
0
  6
Continuous
 62
     7
370
     5
100
AcDbLine
 10
-66.3157264423
 20
439.0159859495
 30
0.0
 11
-66.3157264423
 21
446.2159859495
 31
0.0
  0
LINE
  5
3A0
330
1F
100
AcDbEntity
  8
0
  6
Continuous
 62
     7
370
     5
100
AcDbLine
 10
-66.3157264423
 20
446.2159859495
 30
0.0
 11
-72.5157264423
 21
446.2159859495
 31
0.0
  0
LINE
  5
3A1
330
1F
100
AcDbEntity
  8
0
  6
Continuous
 62
     7
370
     5
100
AcDbLine
 10
-72.5157264423
 20
446.2159859495
 30
0.0
 11
-72.5157264423
 21
439.0159859495
 31
0.0
  0
LINE
  5
3A2
330
1F
100
AcDbEntity
  8
0
  6
Continuous
 62
     7
370
     5
100
AcDbLine
 10
-66.3157264423
 20
407.0159859495
 30
0.0
 11
-66.3157264423
 21
414.2159859495
 31
0.0
  0
LINE
  5
3A3
330
1F
100
AcDbEntity
  8
0
  6
Continuous
 62
     7
370
     5
100
AcDbLine
 10
-66.3157264423
 20
414.2159859495
 30
0.0
 11
-72.5157264423
 21
414.2159859495
 31
0.0
  0
LINE
  5
3A4
330
1F
100
AcDbEntity
  8
0
  6
Continuous
 62
     7
370
     5
100
AcDbLine
 10
-72.5157264423
 20
414.2159859495
 30
0.0
 11
-72.5157264423
 21
407.0159859495
 31
0.0
  0
LINE
  5
3A5
330
1F
100
AcDbEntity
  8
0
  6
Continuous
 62
     7
370
     5
100
AcDbLine
 10
-72.5157264423
 20
407.0159859495
 30
0.0
 11
-66.3157264423
 21
407.0159859495
 31
0.0
  0
LINE
  5
3A6
330
1F
100
AcDbEntity
  8
0
  6
Continuous
 62
     7
370
     5
100
AcDbLine
 10
232.3579685184
 20
86.9733456673
 30
0.0
 11
286.0842735577
 21
86.9733456673
 31
0.0
  0
LINE
  5
3A7
330
1F
100
AcDbEntity
  8
0
  6
Continuous
 62
     7
370
     5
100
AcDbLine
 10
232.3579685184
 20
86.9733456673
 30
0.0
 11
230.3599001926
 21
88.9714139932
 31
0.0
  0
LINE
  5
3A8
330
1F
100
AcDbEntity
  8
0
  6
Continuous
 62
     7
370
     5
100
AcDbLine
 10
230.3599001926
 20
88.9714139932
 30
0.0
 11
-85.3348952917
 21
88.9714139932
 31
0.0
  0
LINE
  5
3A9
330
1F
100
AcDbEntity
  8
0
  6
Continuous
 62
     7
370
     5
100
AcDbLine
 10
-85.3348952917
 20
88.9714139932
 30
0.0
 11
-87.3329636175
 21
86.9733456673
 31
0.0
  0
LINE
  5
3AA
330
1F
100
AcDbEntity
  8
0
  6
Continuous
 62
     7
370
     5
100
AcDbLine
 10
-87.3329636175
 20
86.9733456673
 30
0.0
 11
-140.9157264423
 21
86.9733456673
 31
0.0
  0
LINE
  5
3AB
330
1F
100
AcDbEntity
  8
0
  6
Continuous
 62
     7
370
     5
100
AcDbLine
 10
-140.9157264423
 20
160.6740297802
 30
0.0
 11
-140.9157264423
 21
86.9733456673
 31
0.0
  0
LINE
  5
3AC
330
1F
100
AcDbEntity
  8
0
  6
Continuous
 62
     7
370
     5
100
AcDbLine
 10
-140.9157264423
 20
160.6740297802
 30
0.0
 11
-118.9157264423
 21
168.6813749341
 31
0.0
  0
LINE
  5
3AD
330
1F
100
AcDbEntity
  8
0
  6
Continuous
 62
     7
370
     5
100
AcDbLine
 10
-118.9157264423
 20
168.6813749341
 30
0.0
 11
-118.9157264423
 21
428.6813749341
 31
0.0
  0
LINE
  5
3AE
330
1F
100
AcDbEntity
  8
0
  6
Continuous
 62
     7
370
     5
100
AcDbLine
 10
-118.9157264423
 20
428.6813749341
 30
0.0
 11
-140.9157264423
 21
431.6159859495
 31
0.0
  0
LINE
  5
3AF
330
1F
100
AcDbEntity
  8
0
  6
Continuous
 62
     7
370
     5
100
AcDbLine
 10
-140.9157264423
 20
456.6159859495
 30
0.0
 11
-140.9157264423
 21
431.6159859495
 31
0.0
  0
LINE
  5
3B0
330
1F
100
AcDbEntity
  8
0
  6
Continuous
 62
     7
370
     5
100
AcDbLine
 10
-117.5157264423
 20
456.6159859495
 30
0.0
 11
-140.9157264423
 21
456.6159859495
 31
0.0
  0
LINE
  5
3B1
330
1F
100
AcDbEntity
  8
0
  6
Continuous
 62
     7
370
     5
100
AcDbLine
 10
-117.5157264423
 20
456.6159859495
 30
0.0
 11
-117.5157264423
 21
448.6159859495
 31
0.0
  0
LINE
  5
3B2
330
1F
100
AcDbEntity
  8
0
  6
Continuous
 62
     7
370
     5
100
AcDbLine
 10
-117.5157264423
 20
448.6159859495
 30
0.0
 11
-119.4157264423
 21
448.6159859495
 31
0.0
  0
LINE
  5
3B3
330
1F
100
AcDbEntity
  8
0
  6
Continuous
 62
     7
370
     5
100
AcDbLine
 10
-119.4157264423
 20
448.6159859495
 30
0.0
 11
-119.4157264423
 21
443.5159859495
 31
0.0
  0
LINE
  5
3B4
330
1F
100
AcDbEntity
  8
0
  6
Continuous
 62
     7
370
     5
100
AcDbLine
 10
-119.4157264423
 20
443.5159859495
 30
0.0
 11
-117.5157264423
 21
443.5159859495
 31
0.0
  0
LINE
  5
3B5
330
1F
100
AcDbEntity
  8
0
  6
Continuous
 62
     7
370
     5
100
AcDbLine
 10
-117.5157264423
 20
443.5159859495
 30
0.0
 11
-117.5157264423
 21
439.5159859495
 31
0.0
  0
LINE
  5
3B6
330
1F
100
AcDbEntity
  8
0
  6
Continuous
 62
     7
370
     5
100
AcDbLine
 10
-117.5157264423
 20
439.5159859495
 30
0.0
 11
-114.3157264423
 21
439.5159859495
 31
0.0
  0
LINE
  5
3B7
330
1F
100
AcDbEntity
  8
0
  6
Continuous
 62
     7
370
     5
100
AcDbLine
 10
-114.3157264423
 20
439.5159859495
 30
0.0
 11
-114.3157264423
 21
443.5159859495
 31
0.0
  0
LINE
  5
3B8
330
1F
100
AcDbEntity
  8
0
  6
Continuous
 62
     7
370
     5
100
AcDbLine
 10
-114.3157264423
 20
443.5159859495
 30
0.0
 11
-112.4157264423
 21
443.5159859495
 31
0.0
  0
LINE
  5
3B9
330
1F
100
AcDbEntity
  8
0
  6
Continuous
 62
     7
370
     5
100
AcDbLine
 10
-112.4157264423
 20
443.5159859495
 30
0.0
 11
-112.4157264423
 21
448.6159859495
 31
0.0
  0
LINE
  5
3BA
330
1F
100
AcDbEntity
  8
0
  6
Continuous
 62
     7
370
     5
100
AcDbLine
 10
-112.4157264423
 20
448.6159859495
 30
0.0
 11
-114.3157264423
 21
448.6159859495
 31
0.0
  0
LINE
  5
3BB
330
1F
100
AcDbEntity
  8
0
  6
Continuous
 62
     7
370
     5
100
AcDbLine
 10
-114.3157264423
 20
448.6159859495
 30
0.0
 11
-114.3157264423
 21
456.6159859495
 31
0.0
  0
LINE
  5
3BC
330
1F
100
AcDbEntity
  8
0
  6
Continuous
 62
     7
370
     5
100
AcDbLine
 10
-100.9157264423
 20
462.6159859495
 30
0.0
 11
-90.9157264423
 21
462.6159859495
 31
0.0
  0
LINE
  5
3BD
330
1F
100
AcDbEntity
  8
0
  6
Continuous
 62
     7
370
     5
100
AcDbLine
 10
236.0842735577
 20
462.6159859495
 30
0.0
 11
236.0842735577
 21
456.6159859495
 31
0.0
  0
LINE
  5
3BE
330
1F
100
AcDbEntity
  8
0
  6
Continuous
 62
     7
370
     5
100
AcDbLine
 10
246.0842735577
 20
462.6159859495
 30
0.0
 11
236.0842735577
 21
462.6159859495
 31
0.0
  0
LINE
  5
3BF
330
1F
100
AcDbEntity
  8
0
  6
Continuous
 62
     7
370
     5
100
AcDbLine
 10
246.0842735577
 20
462.6159859495
 30
0.0
 11
246.0842735577
 21
456.6159859495
 31
0.0
  0
LINE
  5
3C0
330
1F
100
AcDbEntity
  8
0
  6
Continuous
 62
     7
370
     5
100
AcDbLine
 10
259.4842735577
 20
456.6159859495
 30
0.0
 11
246.0842735577
 21
456.6159859495
 31
0.0
  0
LINE
  5
3C1
330
1F
100
AcDbEntity
  8
0
  6
Continuous
 62
     7
370
     5
100
AcDbLine
 10
259.4842735577
 20
448.6159859495
 30
0.0
 11
259.4842735577
 21
456.6159859495
 31
0.0
  0
LINE
  5
3C2
330
1F
100
AcDbEntity
  8
0
  6
Continuous
 62
     7
370
     5
100
AcDbLine
 10
257.5842735577
 20
448.6159859495
 30
0.0
 11
259.4842735577
 21
448.6159859495
 31
0.0
  0
LINE
  5
3C3
330
1F
100
AcDbEntity
  8
0
  6
Continuous
 62
     7
370
     5
100
AcDbLine
 10
257.5842735577
 20
443.5159859495
 30
0.0
 11
257.5842735577
 21
448.6159859495
 31
0.0
  0
LINE
  5
3C4
330
1F
100
AcDbEntity
  8
0
  6
Continuous
 62
     7
370
     5
100
AcDbLine
 10
259.4842735577
 20
443.5159859495
 30
0.0
 11
257.5842735577
 21
443.5159859495
 31
0.0
  0
LINE
  5
3C5
330
1F
100
AcDbEntity
  8
0
  6
Continuous
 62
     7
370
     5
100
AcDbLine
 10
259.4842735577
 20
439.5159859495
 30
0.0
 11
259.4842735577
 21
443.5159859495
 31
0.0
  0
LINE
  5
3C6
330
1F
100
AcDbEntity
  8
0
  6
Continuous
 62
     7
370
     5
100
AcDbLine
 10
262.6842735577
 20
439.5159859495
 30
0.0
 11
259.4842735577
 21
439.5159859495
 31
0.0
  0
LINE
  5
3C7
330
1F
100
AcDbEntity
  8
0
  6
Continuous
 62
     7
370
     5
100
AcDbLine
 10
262.6842735577
 20
443.5159859495
 30
0.0
 11
262.6842735577
 21
439.5159859495
 31
0.0
  0
LINE
  5
3C8
330
1F
100
AcDbEntity
  8
0
  6
Continuous
 62
     7
370
     5
100
AcDbLine
 10
264.5842735577
 20
443.5159859495
 30
0.0
 11
262.6842735577
 21
443.5159859495
 31
0.0
  0
LINE
  5
3C9
330
1F
100
AcDbEntity
  8
0
  6
Continuous
 62
     7
370
     5
100
AcDbLine
 10
264.5842735577
 20
448.6159859495
 30
0.0
 11
264.5842735577
 21
443.5159859495
 31
0.0
  0
LINE
  5
3CA
330
1F
100
AcDbEntity
  8
0
  6
Continuous
 62
     7
370
     5
100
AcDbLine
 10
262.6842735577
 20
448.6159859495
 30
0.0
 11
264.5842735577
 21
448.6159859495
 31
0.0
  0
LINE
  5
3CB
330
1F
100
AcDbEntity
  8
0
  6
Continuous
 62
     7
370
     5
100
AcDbLine
 10
262.6842735577
 20
456.6159859495
 30
0.0
 11
262.6842735577
 21
448.6159859495
 31
0.0
  0
LINE
  5
3CC
330
1F
100
AcDbEntity
  8
0
  6
Continuous
 62
     7
370
     5
100
AcDbLine
 10
286.0842735577
 20
456.6159859495
 30
0.0
 11
262.6842735577
 21
456.6159859495
 31
0.0
  0
LINE
  5
3CD
330
1F
100
AcDbEntity
  8
0
  6
Continuous
 62
     7
370
     5
100
AcDbLine
 10
286.0842735577
 20
456.6159859495
 30
0.0
 11
286.0842735577
 21
431.6159859495
 31
0.0
  0
LINE
  5
3CE
330
1F
100
AcDbEntity
  8
0
  6
Continuous
 62
     7
370
     5
100
AcDbLine
 10
264.0842735577
 20
428.6813749341
 30
0.0
 11
286.0842735577
 21
431.6159859495
 31
0.0
  0
LINE
  5
3CF
330
1F
100
AcDbEntity
  8
0
  6
Continuous
 62
     7
370
     5
100
AcDbLine
 10
264.0842735577
 20
168.6813749341
 30
0.0
 11
264.0842735577
 21
428.6813749341
 31
0.0
  0
LINE
  5
3D0
330
1F
100
AcDbEntity
  8
0
  6
Continuous
 62
     7
370
     5
100
AcDbLine
 10
286.0842735577
 20
160.6740297802
 30
0.0
 11
264.0842735577
 21
168.6813749341
 31
0.0
  0
LINE
  5
3D1
330
1F
100
AcDbEntity
  8
0
  6
Continuous
 62
     7
370
     5
100
AcDbLine
 10
286.0842735577
 20
160.6740297802
 30
0.0
 11
286.0842735577
 21
86.9733456673
 31
0.0
  0
LINE
  5
3D2
330
1F
100
AcDbEntity
  8
0
  6
Continuous
 62
     7
370
     5
100
AcDbLine
 10
211.4842735577
 20
284.1159859495
 30
0.0
 11
211.4842735577
 21
291.3159859495
 31
0.0
  0
LINE
  5
3D3
330
1F
100
AcDbEntity
  8
0
  6
Continuous
 62
     7
370
     5
100
AcDbLine
 10
217.6842735577
 20
284.1159859495
 30
0.0
 11
211.4842735577
 21
284.1159859495
 31
0.0
  0
LINE
  5
3D4
330
1F
100
AcDbEntity
  8
0
  6
Continuous
 62
     7
370
     5
100
AcDbLine
 10
217.6842735577
 20
291.3159859495
 30
0.0
 11
217.6842735577
 21
284.1159859495
 31
0.0
  0
LINE
  5
3D5
330
1F
100
AcDbEntity
  8
0
  6
Continuous
 62
     7
370
     5
100
AcDbLine
 10
211.4842735577
 20
291.3159859495
 30
0.0
 11
217.6842735577
 21
291.3159859495
 31
0.0
  0
LINE
  5
3D6
330
1F
100
AcDbEntity
  8
0
  6
Continuous
 62
     7
370
     5
100
AcDbLine
 10
211.4842735577
 20
439.0159859495
 30
0.0
 11
211.4842735577
 21
446.2159859495
 31
0.0
  0
LINE
  5
3D7
330
1F
100
AcDbEntity
  8
0
  6
Continuous
 62
     7
370
     5
100
AcDbLine
 10
217.6842735577
 20
439.0159859495
 30
0.0
 11
211.4842735577
 21
439.0159859495
 31
0.0
  0
LINE
  5
3D8
330
1F
100
AcDbEntity
  8
0
  6
Continuous
 62
     7
370
     5
100
AcDbLine
 10
217.6842735577
 20
446.2159859495
 30
0.0
 11
217.6842735577
 21
439.0159859495
 31
0.0
  0
LINE
  5
3D9
330
1F
100
AcDbEntity
  8
0
  6
Continuous
 62
     7
370
     5
100
AcDbLine
 10
211.4842735577
 20
446.2159859495
 30
0.0
 11
217.6842735577
 21
446.2159859495
 31
0.0
  0
LINE
  5
3DA
330
1F
100
AcDbEntity
  8
0
  6
Continuous
 62
     7
370
     5
100
AcDbLine
 10
202.5842735577
 20
122.9714139932
 30
0.0
 11
198.5842735577
 21
118.9714139932
 31
0.0
  0
LINE
  5
3DB
330
1F
100
AcDbEntity
  8
0
  6
Continuous
 62
     7
370
     5
100
AcDbLine
 10
202.5842735577
 20
411.6594486179
 30
0.0
 11
202.5842735577
 21
122.9714139932
 31
0.0
  0
LINE
  5
3DC
330
1F
100
AcDbEntity
  8
0
  6
Continuous
 62
     7
370
     5
100
AcDbLine
 10
197.3379851036
 20
416.6546194325
 30
0.0
 11
202.5842735577
 21
411.6594486179
 31
0.0
  0
LINE
  5
3DD
330
1F
100
AcDbEntity
  8
0
  6
Continuous
 62
     7
370
     5
100
AcDbLine
 10
-52.4205556276
 20
416.6546194325
 30
0.0
 11
197.3379851036
 21
416.6546194325
 31
0.0
  0
LINE
  5
3DE
330
1F
100
AcDbEntity
  8
0
  6
Continuous
 62
     7
370
     5
100
AcDbLine
 10
-57.4157264423
 20
411.6594486179
 30
0.0
 11
-52.4205556276
 21
416.6546194325
 31
0.0
  0
LINE
  5
3DF
330
1F
100
AcDbEntity
  8
0
  6
Continuous
 62
     7
370
     5
100
AcDbLine
 10
-57.4157264423
 20
122.9714139932
 30
0.0
 11
-57.4157264423
 21
411.6594486179
 31
0.0
  0
LINE
  5
3E0
330
1F
100
AcDbEntity
  8
0
  6
Continuous
 62
     7
370
     5
100
AcDbLine
 10
-53.4157264423
 20
118.9714139932
 30
0.0
 11
-57.4157264423
 21
122.9714139932
 31
0.0
  0
LINE
  5
3E1
330
1F
100
AcDbEntity
  8
0
  6
Continuous
 62
     7
370
     5
100
AcDbLine
 10
-53.4157264423
 20
118.9714139932
 30
0.0
 11
-21.4543599253
 21
118.9714139932
 31
0.0
  0
LINE
  5
3E2
330
1F
100
AcDbEntity
  8
0
  6
Continuous
 62
     7
370
     5
100
AcDbLine
 10
-17.4543599253
 20
114.9714139932
 30
0.0
 11
-21.4543599253
 21
118.9714139932
 31
0.0
  0
LINE
  5
3E3
330
1F
100
AcDbEntity
  8
0
  6
Continuous
 62
     7
370
     5
100
AcDbLine
 10
-17.4543599253
 20
114.9714139932
 30
0.0
 11
-17.4543599253
 21
106.8885487673
 31
0.0
  0
LINE
  5
3E4
330
1F
100
AcDbEntity
  8
0
  6
Continuous
 62
     7
370
     5
100
AcDbLine
 10
-7.464018296
 20
106.8885487673
 30
0.0
 11
-7.464018296
 21
114.9714139932
 31
0.0
  0
LINE
  5
3E5
330
1F
100
AcDbEntity
  8
0
  6
Continuous
 62
     7
370
     5
100
AcDbLine
 10
-3.464018296
 20
118.9714139932
 30
0.0
 11
-7.464018296
 21
114.9714139932
 31
0.0
  0
LINE
  5
3E6
330
1F
100
AcDbEntity
  8
0
  6
Continuous
 62
     7
370
     5
100
AcDbLine
 10
-3.464018296
 20
118.9714139932
 30
0.0
 11
50.4509880414
 21
118.9714139932
 31
0.0
  0
LINE
  5
3E7
330
1F
100
AcDbEntity
  8
0
  6
Continuous
 62
     7
370
     5
100
AcDbLine
 10
67.4635439233
 20
101.9588581112
 30
0.0
 11
50.4509880414
 21
118.9714139932
 31
0.0
  0
LINE
  5
3E8
330
1F
100
AcDbEntity
  8
0
  6
Continuous
 62
     7
370
     5
100
AcDbLine
 10
67.4635439233
 20
101.9588581112
 30
0.0
 11
77.4538855526
 21
101.9588581112
 31
0.0
  0
LINE
  5
3E9
330
1F
100
AcDbEntity
  8
0
  6
Continuous
 62
     7
370
     5
100
AcDbLine
 10
77.4538855526
 20
101.9588581112
 30
0.0
 11
94.4664414346
 21
118.9714139932
 31
0.0
  0
LINE
  5
3EA
330
1F
100
AcDbEntity
  8
0
  6
Continuous
 62
     7
370
     5
100
AcDbLine
 10
94.4664414346
 20
118.9714139932
 30
0.0
 11
148.381447772
 21
118.9714139932
 31
0.0
  0
LINE
  5
3EB
330
1F
100
AcDbEntity
  8
0
  6
Continuous
 62
     7
370
     5
100
AcDbLine
 10
152.381447772
 20
114.9714139932
 30
0.0
 11
148.381447772
 21
118.9714139932
 31
0.0
  0
LINE
  5
3EC
330
1F
100
AcDbEntity
  8
0
  6
Continuous
 62
     7
370
     5
100
AcDbLine
 10
152.381447772
 20
114.9714139932
 30
0.0
 11
152.381447772
 21
106.8885487673
 31
0.0
  0
LINE
  5
3ED
330
1F
100
AcDbEntity
  8
0
  6
Continuous
 62
     7
370
     5
100
AcDbLine
 10
162.6229070408
 20
114.9714139932
 30
0.0
 11
162.6229070408
 21
106.8885487673
 31
0.0
  0
LINE
  5
3EE
330
1F
100
AcDbEntity
  8
0
  6
Continuous
 62
     7
370
     5
100
AcDbLine
 10
166.6229070408
 20
118.9714139932
 30
0.0
 11
162.6229070408
 21
114.9714139932
 31
0.0
  0
LINE
  5
3EF
330
1F
100
AcDbEntity
  8
0
  6
Continuous
 62
     7
370
     5
100
AcDbLine
 10
166.6229070408
 20
118.9714139932
 30
0.0
 11
198.5842735577
 21
118.9714139932
 31
0.0
  0
LINE
  5
3F0
330
1F
100
AcDbEntity
  8
0
  6
Continuous
 62
     7
370
     5
100
AcDbLine
 10
-34.2409397551
 20
122.9288380192
 30
0.0
 11
179.7590602449
 21
122.9288380192
 31
0.0
  0
LINE
  5
3F1
330
1F
100
AcDbEntity
  8
0
  6
Continuous
 62
     7
370
     5
100
AcDbLine
 10
154.5090602449
 20
247.4288380192
 30
0.0
 11
154.5090602449
 21
222.4288380192
 31
0.0
  0
LINE
  5
3F2
330
1F
100
AcDbEntity
  8
0
  6
Continuous
 62
     7
370
     5
100
AcDbLine
 10
165.0090602449
 20
222.4288380192
 30
0.0
 11
165.0090602449
 21
247.4288380192
 31
0.0
  0
LINE
  5
3F3
330
1F
100
AcDbEntity
  8
0
  6
Continuous
 62
     7
370
     5
100
AcDbLine
 10
-19.4909397551
 20
282.4288380192
 30
0.0
 11
-19.4909397551
 21
257.4288380192
 31
0.0
  0
LINE
  5
3F4
330
1F
100
AcDbEntity
  8
0
  6
Continuous
 62
     7
370
     5
100
AcDbLine
 10
-8.9909397551
 20
257.4288380192
 30
0.0
 11
-8.9909397551
 21
282.4288380192
 31
0.0
  0
LINE
  5
3F5
330
1F
100
AcDbEntity
  8
0
  6
Continuous
 62
     7
370
     5
100
AcDbLine
 10
-39.2409397551
 20
341.9288380192
 30
0.0
 11
-39.2409397551
 21
127.9288380192
 31
0.0
  0
LINE
  5
3F6
330
1F
100
AcDbEntity
  8
0
  6
Continuous
 62
     7
370
     5
100
AcDbLine
 10
179.7590602449
 20
346.9288380192
 30
0.0
 11
-34.2409397551
 21
346.9288380192
 31
0.0
  0
LINE
  5
3F7
330
1F
100
AcDbEntity
  8
0
  6
Continuous
 62
     7
370
     5
100
AcDbLine
 10
184.7590602449
 20
127.9288380192
 30
0.0
 11
184.7590602449
 21
341.9288380192
 31
0.0
  0
LINE
  5
3F8
330
1F
100
AcDbEntity
  8
0
  6
Continuous
 62
     7
370
     5
100
AcDbLine
 10
-19.4909397551
 20
212.4288380192
 30
0.0
 11
-19.4909397551
 21
187.4288380192
 31
0.0
  0
LINE
  5
3F9
330
1F
100
AcDbEntity
  8
0
  6
Continuous
 62
     7
370
     5
100
AcDbLine
 10
-8.9909397551
 20
187.4288380192
 30
0.0
 11
-8.9909397551
 21
212.4288380192
 31
0.0
  0
LINE
  5
3FA
330
1F
100
AcDbEntity
  8
0
  6
Continuous
 62
     7
370
     5
100
AcDbLine
 10
-24.2409397551
 20
271.8288380192
 30
0.0
 11
-29.2409397551
 21
271.8288380192
 31
0.0
  0
LINE
  5
3FB
330
1F
100
AcDbEntity
  8
0
  6
Continuous
 62
     7
370
     5
100
AcDbLine
 10
-29.2409397551
 20
268.0288380192
 30
0.0
 11
-24.2409397551
 21
268.0288380192
 31
0.0
  0
LINE
  5
3FC
330
1F
100
AcDbEntity
  8
0
  6
Continuous
 62
     7
370
     5
100
AcDbLine
 10
-4.2409397551
 20
268.0288380192
 30
0.0
 11
0.7590602449
 21
268.0288380192
 31
0.0
  0
LINE
  5
3FD
330
1F
100
AcDbEntity
  8
0
  6
Continuous
 62
     7
370
     5
100
AcDbLine
 10
0.7590602449
 20
271.8288380192
 30
0.0
 11
-4.2409397551
 21
271.8288380192
 31
0.0
  0
LINE
  5
3FE
330
1F
100
AcDbEntity
  8
0
  6
Continuous
 62
     7
370
     5
100
AcDbLine
 10
169.7590602449
 20
233.0288380192
 30
0.0
 11
174.7590602449
 21
233.0288380192
 31
0.0
  0
LINE
  5
3FF
330
1F
100
AcDbEntity
  8
0
  6
Continuous
 62
     7
370
     5
100
AcDbLine
 10
174.7590602449
 20
236.8288380192
 30
0.0
 11
169.7590602449
 21
236.8288380192
 31
0.0
  0
LINE
  5
400
330
1F
100
AcDbEntity
  8
0
  6
Continuous
 62
     7
370
     5
100
AcDbLine
 10
-24.2409397551
 20
201.8288380192
 30
0.0
 11
-29.2409397551
 21
201.8288380192
 31
0.0
  0
LINE
  5
401
330
1F
100
AcDbEntity
  8
0
  6
Continuous
 62
     7
370
     5
100
AcDbLine
 10
-29.2409397551
 20
198.0288380192
 30
0.0
 11
-24.2409397551
 21
198.0288380192
 31
0.0
  0
LINE
  5
402
330
1F
100
AcDbEntity
  8
0
  6
Continuous
 62
     7
370
     5
100
AcDbLine
 10
-4.2409397551
 20
198.0288380192
 30
0.0
 11
0.7590602449
 21
198.0288380192
 31
0.0
  0
LINE
  5
403
330
1F
100
AcDbEntity
  8
0
  6
Continuous
 62
     7
370
     5
100
AcDbLine
 10
0.7590602449
 20
201.8288380192
 30
0.0
 11
-4.2409397551
 21
201.8288380192
 31
0.0
  0
LINE
  5
404
330
1F
100
AcDbEntity
  8
0
  6
Continuous
 62
     7
370
     5
100
AcDbLine
 10
149.7590602449
 20
236.8288380192
 30
0.0
 11
144.7590602449
 21
236.8288380192
 31
0.0
  0
LINE
  5
405
330
1F
100
AcDbEntity
  8
0
  6
Continuous
 62
     7
370
     5
100
AcDbLine
 10
144.7590602449
 20
233.0288380192
 30
0.0
 11
149.7590602449
 21
233.0288380192
 31
0.0
  0
LINE
  5
406
330
1F
100
AcDbEntity
  8
0
  6
Continuous
 62
     7
370
     5
100
AcDbLine
 10
103.3595481688
 20
272.6794479241
 30
0.0
 11
140.1595481688
 21
318.6794479241
 31
0.0
  0
LINE
  5
407
330
1F
100
AcDbEntity
  8
0
  6
Continuous
 62
     7
370
     5
100
AcDbLine
 10
138.5978105499
 20
321.9288380192
 30
0.0
 11
6.9203099399
 21
321.9288380192
 31
0.0
  0
LINE
  5
408
330
1F
100
AcDbEntity
  8
0
  6
Continuous
 62
     7
370
     5
100
AcDbLine
 10
5.358572321
 20
318.6794479241
 30
0.0
 11
42.158572321
 21
272.6794479241
 31
0.0
  0
LINE
  5
409
330
1F
100
AcDbEntity
  8
0
  6
Continuous
 62
     7
370
     5
100
AcDbLine
 10
43.7203099399
 20
271.9288380192
 30
0.0
 11
101.7978105499
 21
271.9288380192
 31
0.0
  0
LINE
  5
40A
330
1F
100
AcDbEntity
  8
0
  6
Continuous
 62
     7
370
     5
100
AcDbLine
 10
6.9203099399
 20
147.9288380192
 30
0.0
 11
138.5978105499
 21
147.9288380192
 31
0.0
  0
LINE
  5
40B
330
1F
100
AcDbEntity
  8
0
  6
Continuous
 62
     7
370
     5
100
AcDbLine
 10
140.1595481688
 20
151.1782281143
 30
0.0
 11
103.3595481688
 21
197.1782281143
 31
0.0
  0
LINE
  5
40C
330
1F
100
AcDbEntity
  8
0
  6
Continuous
 62
     7
370
     5
100
AcDbLine
 10
101.7978105499
 20
197.9288380192
 30
0.0
 11
43.7203099399
 21
197.9288380192
 31
0.0
  0
LINE
  5
40D
330
1F
100
AcDbEntity
  8
0
  6
Continuous
 62
     7
370
     5
100
AcDbLine
 10
42.158572321
 20
197.1782281143
 30
0.0
 11
5.358572321
 21
151.1782281143
 31
0.0
  0
LINE
  5
40E
330
1F
100
AcDbEntity
  8
0
  6
Continuous
 62
     7
370
     5
100
AcDbLine
 10
281.213394439
 20
283.3658818817
 30
0.0
 11
281.213394439
 21
281.4658818817
 31
0.0
  0
LINE
  5
40F
330
1F
100
AcDbEntity
  8
0
  6
Continuous
 62
     7
370
     5
100
AcDbLine
 10
288.213394439
 20
308.8658818817
 30
0.0
 11
273.213394439
 21
308.8658818817
 31
0.0
  0
LINE
  5
410
330
1F
100
AcDbEntity
  8
0
  6
Continuous
 62
     7
370
     5
100
AcDbLine
 10
313.213394439
 20
265.8658818817
 30
0.0
 11
288.213394439
 21
308.8658818817
 31
0.0
  0
LINE
  5
411
330
1F
100
AcDbEntity
  8
0
  6
Continuous
 62
     7
370
     5
100
AcDbLine
 10
313.213394439
 20
250.8658818817
 30
0.0
 11
313.213394439
 21
265.8658818817
 31
0.0
  0
LINE
  5
412
330
1F
100
AcDbEntity
  8
0
  6
Continuous
 62
     7
370
     5
100
AcDbLine
 10
299.813394439
 20
250.8658818817
 30
0.0
 11
313.213394439
 21
250.8658818817
 31
0.0
  0
LINE
  5
413
330
1F
100
AcDbEntity
  8
0
  6
Continuous
 62
     7
370
     5
100
AcDbLine
 10
299.813394439
 20
250.8658818817
 30
0.0
 11
299.813394439
 21
258.8658818817
 31
0.0
  0
LINE
  5
414
330
1F
100
AcDbEntity
  8
0
  6
Continuous
 62
     7
370
     5
100
AcDbLine
 10
299.813394439
 20
258.8658818817
 30
0.0
 11
301.713394439
 21
258.8658818817
 31
0.0
  0
LINE
  5
415
330
1F
100
AcDbEntity
  8
0
  6
Continuous
 62
     7
370
     5
100
AcDbLine
 10
301.713394439
 20
258.8658818817
 30
0.0
 11
301.713394439
 21
263.9658818817
 31
0.0
  0
LINE
  5
416
330
1F
100
AcDbEntity
  8
0
  6
Continuous
 62
     7
370
     5
100
AcDbLine
 10
301.713394439
 20
263.9658818817
 30
0.0
 11
299.813394439
 21
263.9658818817
 31
0.0
  0
LINE
  5
417
330
1F
100
AcDbEntity
  8
0
  6
Continuous
 62
     7
370
     5
100
AcDbLine
 10
299.813394439
 20
263.9658818817
 30
0.0
 11
299.813394439
 21
267.9658818817
 31
0.0
  0
LINE
  5
418
330
1F
100
AcDbEntity
  8
0
  6
Continuous
 62
     7
370
     5
100
AcDbLine
 10
299.813394439
 20
267.9658818817
 30
0.0
 11
296.613394439
 21
267.9658818817
 31
0.0
  0
LINE
  5
419
330
1F
100
AcDbEntity
  8
0
  6
Continuous
 62
     7
370
     5
100
AcDbLine
 10
296.613394439
 20
267.9658818817
 30
0.0
 11
296.613394439
 21
263.9658818817
 31
0.0
  0
LINE
  5
41A
330
1F
100
AcDbEntity
  8
0
  6
Continuous
 62
     7
370
     5
100
AcDbLine
 10
296.613394439
 20
263.9658818817
 30
0.0
 11
294.713394439
 21
263.9658818817
 31
0.0
  0
LINE
  5
41B
330
1F
100
AcDbEntity
  8
0
  6
Continuous
 62
     7
370
     5
100
AcDbLine
 10
294.713394439
 20
263.9658818817
 30
0.0
 11
294.713394439
 21
258.8658818817
 31
0.0
  0
LINE
  5
41C
330
1F
100
AcDbEntity
  8
0
  6
Continuous
 62
     7
370
     5
100
AcDbLine
 10
294.713394439
 20
258.8658818817
 30
0.0
 11
296.613394439
 21
258.8658818817
 31
0.0
  0
LINE
  5
41D
330
1F
100
AcDbEntity
  8
0
  6
Continuous
 62
     7
370
     5
100
AcDbLine
 10
296.613394439
 20
258.8658818817
 30
0.0
 11
296.613394439
 21
250.8658818817
 31
0.0
  0
LINE
  5
41E
330
1F
100
AcDbEntity
  8
0
  6
Continuous
 62
     7
370
     5
100
AcDbLine
 10
283.213394439
 20
250.8658818817
 30
0.0
 11
296.613394439
 21
250.8658818817
 31
0.0
  0
LINE
  5
41F
330
1F
100
AcDbEntity
  8
0
  6
Continuous
 62
     7
370
     5
100
AcDbLine
 10
283.213394439
 20
244.8658818817
 30
0.0
 11
283.213394439
 21
250.8658818817
 31
0.0
  0
LINE
  5
420
330
1F
100
AcDbEntity
  8
0
  6
Continuous
 62
     7
370
     5
100
AcDbLine
 10
283.213394439
 20
244.8658818817
 30
0.0
 11
273.213394439
 21
244.8658818817
 31
0.0
  0
LINE
  5
421
330
1F
100
AcDbEntity
  8
0
  6
Continuous
 62
     7
370
     5
100
AcDbLine
 10
273.213394439
 20
278.2658818817
 30
0.0
 11
273.213394439
 21
244.8658818817
 31
0.0
  0
LINE
  5
422
330
1F
100
AcDbEntity
  8
0
  6
Continuous
 62
     7
370
     5
100
AcDbLine
 10
273.213394439
 20
278.2658818817
 30
0.0
 11
281.213394439
 21
278.2658818817
 31
0.0
  0
LINE
  5
423
330
1F
100
AcDbEntity
  8
0
  6
Continuous
 62
     7
370
     5
100
AcDbLine
 10
281.213394439
 20
278.2658818817
 30
0.0
 11
281.213394439
 21
276.3658818817
 31
0.0
  0
LINE
  5
424
330
1F
100
AcDbEntity
  8
0
  6
Continuous
 62
     7
370
     5
100
AcDbLine
 10
281.213394439
 20
276.3658818817
 30
0.0
 11
286.313394439
 21
276.3658818817
 31
0.0
  0
LINE
  5
425
330
1F
100
AcDbEntity
  8
0
  6
Continuous
 62
     7
370
     5
100
AcDbLine
 10
286.313394439
 20
276.3658818817
 30
0.0
 11
286.313394439
 21
278.2658818817
 31
0.0
  0
LINE
  5
426
330
1F
100
AcDbEntity
  8
0
  6
Continuous
 62
     7
370
     5
100
AcDbLine
 10
286.313394439
 20
278.2658818817
 30
0.0
 11
290.313394439
 21
278.2658818817
 31
0.0
  0
LINE
  5
427
330
1F
100
AcDbEntity
  8
0
  6
Continuous
 62
     7
370
     5
100
AcDbLine
 10
290.313394439
 20
278.2658818817
 30
0.0
 11
290.313394439
 21
281.4658818817
 31
0.0
  0
LINE
  5
428
330
1F
100
AcDbEntity
  8
0
  6
Continuous
 62
     7
370
     5
100
AcDbLine
 10
290.313394439
 20
281.4658818817
 30
0.0
 11
286.313394439
 21
281.4658818817
 31
0.0
  0
LINE
  5
429
330
1F
100
AcDbEntity
  8
0
  6
Continuous
 62
     7
370
     5
100
AcDbLine
 10
286.313394439
 20
281.4658818817
 30
0.0
 11
286.313394439
 21
283.3658818817
 31
0.0
  0
LINE
  5
42A
330
1F
100
AcDbEntity
  8
0
  6
Continuous
 62
     7
370
     5
100
AcDbLine
 10
286.313394439
 20
283.3658818817
 30
0.0
 11
281.213394439
 21
283.3658818817
 31
0.0
  0
LINE
  5
42B
330
1F
100
AcDbEntity
  8
0
  6
Continuous
 62
     7
370
     5
100
AcDbLine
 10
281.213394439
 20
281.4658818817
 30
0.0
 11
273.213394439
 21
281.4658818817
 31
0.0
  0
LINE
  5
42C
330
1F
100
AcDbEntity
  8
0
  6
Continuous
 62
     7
370
     5
100
AcDbLine
 10
273.213394439
 20
308.8658818817
 30
0.0
 11
273.213394439
 21
281.4658818817
 31
0.0
  0
LINE
  5
42D
330
1F
100
AcDbEntity
  8
0
  6
Continuous
 62
     7
370
     5
100
AcDbLine
 10
307.417154719
 20
200.0601145007
 30
0.0
 11
307.417154719
 21
205.1601145007
 31
0.0
  0
LINE
  5
42E
330
1F
100
AcDbEntity
  8
0
  6
Continuous
 62
     7
370
     5
100
AcDbLine
 10
305.517154719
 20
200.0601145007
 30
0.0
 11
307.417154719
 21
200.0601145007
 31
0.0
  0
LINE
  5
42F
330
1F
100
AcDbEntity
  8
0
  6
Continuous
 62
     7
370
     5
100
AcDbLine
 10
305.517154719
 20
196.0601145007
 30
0.0
 11
305.517154719
 21
200.0601145007
 31
0.0
  0
LINE
  5
430
330
1F
100
AcDbEntity
  8
0
  6
Continuous
 62
     7
370
     5
100
AcDbLine
 10
302.317154719
 20
196.0601145007
 30
0.0
 11
305.517154719
 21
196.0601145007
 31
0.0
  0
LINE
  5
431
330
1F
100
AcDbEntity
  8
0
  6
Continuous
 62
     7
370
     5
100
AcDbLine
 10
302.317154719
 20
200.0601145007
 30
0.0
 11
302.317154719
 21
196.0601145007
 31
0.0
  0
LINE
  5
432
330
1F
100
AcDbEntity
  8
0
  6
Continuous
 62
     7
370
     5
100
AcDbLine
 10
300.417154719
 20
200.0601145007
 30
0.0
 11
302.317154719
 21
200.0601145007
 31
0.0
  0
LINE
  5
433
330
1F
100
AcDbEntity
  8
0
  6
Continuous
 62
     7
370
     5
100
AcDbLine
 10
300.417154719
 20
205.1601145007
 30
0.0
 11
300.417154719
 21
200.0601145007
 31
0.0
  0
LINE
  5
434
330
1F
100
AcDbEntity
  8
0
  6
Continuous
 62
     7
370
     5
100
AcDbLine
 10
302.317154719
 20
205.1601145007
 30
0.0
 11
300.417154719
 21
205.1601145007
 31
0.0
  0
LINE
  5
435
330
1F
100
AcDbEntity
  8
0
  6
Continuous
 62
     7
370
     5
100
AcDbLine
 10
302.317154719
 20
213.1601145007
 30
0.0
 11
302.317154719
 21
205.1601145007
 31
0.0
  0
LINE
  5
436
330
1F
100
AcDbEntity
  8
0
  6
Continuous
 62
     7
370
     5
100
AcDbLine
 10
302.317154719
 20
213.1601145007
 30
0.0
 11
268.917154719
 21
213.1601145007
 31
0.0
  0
LINE
  5
437
330
1F
100
AcDbEntity
  8
0
  6
Continuous
 62
     7
370
     5
100
AcDbLine
 10
268.917154719
 20
203.1601145007
 30
0.0
 11
268.917154719
 21
213.1601145007
 31
0.0
  0
LINE
  5
438
330
1F
100
AcDbEntity
  8
0
  6
Continuous
 62
     7
370
     5
100
AcDbLine
 10
268.917154719
 20
203.1601145007
 30
0.0
 11
274.917154719
 21
203.1601145007
 31
0.0
  0
LINE
  5
439
330
1F
100
AcDbEntity
  8
0
  6
Continuous
 62
     7
370
     5
100
AcDbLine
 10
274.917154719
 20
203.1601145007
 30
0.0
 11
274.917154719
 21
189.7601145007
 31
0.0
  0
LINE
  5
43A
330
1F
100
AcDbEntity
  8
0
  6
Continuous
 62
     7
370
     5
100
AcDbLine
 10
282.917154719
 20
189.7601145007
 30
0.0
 11
274.917154719
 21
189.7601145007
 31
0.0
  0
LINE
  5
43B
330
1F
100
AcDbEntity
  8
0
  6
Continuous
 62
     7
370
     5
100
AcDbLine
 10
282.917154719
 20
191.6601145007
 30
0.0
 11
282.917154719
 21
189.7601145007
 31
0.0
  0
LINE
  5
43C
330
1F
100
AcDbEntity
  8
0
  6
Continuous
 62
     7
370
     5
100
AcDbLine
 10
288.017154719
 20
191.6601145007
 30
0.0
 11
282.917154719
 21
191.6601145007
 31
0.0
  0
LINE
  5
43D
330
1F
100
AcDbEntity
  8
0
  6
Continuous
 62
     7
370
     5
100
AcDbLine
 10
292.017154719
 20
189.7601145007
 30
0.0
 11
288.017154719
 21
189.7601145007
 31
0.0
  0
LINE
  5
43E
330
1F
100
AcDbEntity
  8
0
  6
Continuous
 62
     7
370
     5
100
AcDbLine
 10
292.017154719
 20
186.5601145007
 30
0.0
 11
292.017154719
 21
189.7601145007
 31
0.0
  0
LINE
  5
43F
330
1F
100
AcDbEntity
  8
0
  6
Continuous
 62
     7
370
     5
100
AcDbLine
 10
288.017154719
 20
186.5601145007
 30
0.0
 11
292.017154719
 21
186.5601145007
 31
0.0
  0
LINE
  5
440
330
1F
100
AcDbEntity
  8
0
  6
Continuous
 62
     7
370
     5
100
AcDbLine
 10
288.017154719
 20
184.6601145007
 30
0.0
 11
288.017154719
 21
186.5601145007
 31
0.0
  0
LINE
  5
441
330
1F
100
AcDbEntity
  8
0
  6
Continuous
 62
     7
370
     5
100
AcDbLine
 10
282.917154719
 20
184.6601145007
 30
0.0
 11
288.017154719
 21
184.6601145007
 31
0.0
  0
LINE
  5
442
330
1F
100
AcDbEntity
  8
0
  6
Continuous
 62
     7
370
     5
100
AcDbLine
 10
282.917154719
 20
186.5601145007
 30
0.0
 11
282.917154719
 21
184.6601145007
 31
0.0
  0
LINE
  5
443
330
1F
100
AcDbEntity
  8
0
  6
Continuous
 62
     7
370
     5
100
AcDbLine
 10
274.917154719
 20
186.5601145007
 30
0.0
 11
282.917154719
 21
186.5601145007
 31
0.0
  0
LINE
  5
444
330
1F
100
AcDbEntity
  8
0
  6
Continuous
 62
     7
370
     5
100
AcDbLine
 10
274.917154719
 20
186.5601145007
 30
0.0
 11
274.917154719
 21
173.1601145007
 31
0.0
  0
LINE
  5
445
330
1F
100
AcDbEntity
  8
0
  6
Continuous
 62
     7
370
     5
100
AcDbLine
 10
274.917154719
 20
173.1601145007
 30
0.0
 11
289.917154719
 21
173.1601145007
 31
0.0
  0
LINE
  5
446
330
1F
100
AcDbEntity
  8
0
  6
Continuous
 62
     7
370
     5
100
AcDbLine
 10
289.917154719
 20
173.1601145007
 30
0.0
 11
332.917154719
 21
198.1601145007
 31
0.0
  0
LINE
  5
447
330
1F
100
AcDbEntity
  8
0
  6
Continuous
 62
     7
370
     5
100
AcDbLine
 10
332.917154719
 20
198.1601145007
 30
0.0
 11
332.917154719
 21
213.1601145007
 31
0.0
  0
LINE
  5
448
330
1F
100
AcDbEntity
  8
0
  6
Continuous
 62
     7
370
     5
100
AcDbLine
 10
305.517154719
 20
205.1601145007
 30
0.0
 11
305.517154719
 21
213.1601145007
 31
0.0
  0
LINE
  5
449
330
1F
100
AcDbEntity
  8
0
  6
Continuous
 62
     7
370
     5
100
AcDbLine
 10
332.917154719
 20
213.1601145007
 30
0.0
 11
305.517154719
 21
213.1601145007
 31
0.0
  0
LINE
  5
44A
330
1F
100
AcDbEntity
  8
0
  6
Continuous
 62
     7
370
     5
100
AcDbLine
 10
288.017154719
 20
189.7601145007
 30
0.0
 11
288.017154719
 21
191.6601145007
 31
0.0
  0
LINE
  5
44B
330
1F
100
AcDbEntity
  8
0
  6
Continuous
 62
     7
370
     5
100
AcDbLine
 10
307.417154719
 20
205.1601145007
 30
0.0
 11
305.517154719
 21
205.1601145007
 31
0.0
  0
LINE
  5
44C
330
1F
100
AcDbEntity
  8
0
  6
Continuous
 62
     7
370
     5
100
AcDbLine
 10
138.5581862317
 20
375.8276799569
 30
0.0
 11
143.6581862317
 21
375.8276799569
 31
0.0
  0
LINE
  5
44D
330
1F
100
AcDbEntity
  8
0
  6
Continuous
 62
     7
370
     5
100
AcDbLine
 10
143.6581862317
 20
377.7276799569
 30
0.0
 11
147.6581862317
 21
377.7276799569
 31
0.0
  0
LINE
  5
44E
330
1F
100
AcDbEntity
  8
0
  6
Continuous
 62
     7
370
     5
100
AcDbLine
 10
163.0581862317
 20
396.3276799569
 30
0.0
 11
161.1581862317
 21
396.3276799569
 31
0.0
  0
LINE
  5
44F
330
1F
100
AcDbEntity
  8
0
  6
Continuous
 62
     7
370
     5
100
AcDbLine
 10
188.5581862317
 20
389.3276799569
 30
0.0
 11
188.5581862317
 21
404.3276799569
 31
0.0
  0
LINE
  5
450
330
1F
100
AcDbEntity
  8
0
  6
Continuous
 62
     7
370
     5
100
AcDbLine
 10
145.5581862317
 20
364.3276799569
 30
0.0
 11
188.5581862317
 21
389.3276799569
 31
0.0
  0
LINE
  5
451
330
1F
100
AcDbEntity
  8
0
  6
Continuous
 62
     7
370
     5
100
AcDbLine
 10
130.5581862317
 20
364.3276799569
 30
0.0
 11
145.5581862317
 21
364.3276799569
 31
0.0
  0
LINE
  5
452
330
1F
100
AcDbEntity
  8
0
  6
Continuous
 62
     7
370
     5
100
AcDbLine
 10
130.5581862317
 20
377.7276799569
 30
0.0
 11
130.5581862317
 21
364.3276799569
 31
0.0
  0
LINE
  5
453
330
1F
100
AcDbEntity
  8
0
  6
Continuous
 62
     7
370
     5
100
AcDbLine
 10
130.5581862317
 20
377.7276799569
 30
0.0
 11
138.5581862317
 21
377.7276799569
 31
0.0
  0
LINE
  5
454
330
1F
100
AcDbEntity
  8
0
  6
Continuous
 62
     7
370
     5
100
AcDbLine
 10
138.5581862317
 20
377.7276799569
 30
0.0
 11
138.5581862317
 21
375.8276799569
 31
0.0
  0
LINE
  5
455
330
1F
100
AcDbEntity
  8
0
  6
Continuous
 62
     7
370
     5
100
AcDbLine
 10
143.6581862317
 20
375.8276799569
 30
0.0
 11
143.6581862317
 21
377.7276799569
 31
0.0
  0
LINE
  5
456
330
1F
100
AcDbEntity
  8
0
  6
Continuous
 62
     7
370
     5
100
AcDbLine
 10
147.6581862317
 20
377.7276799569
 30
0.0
 11
147.6581862317
 21
380.9276799569
 31
0.0
  0
LINE
  5
457
330
1F
100
AcDbEntity
  8
0
  6
Continuous
 62
     7
370
     5
100
AcDbLine
 10
147.6581862317
 20
380.9276799569
 30
0.0
 11
143.6581862317
 21
380.9276799569
 31
0.0
  0
LINE
  5
458
330
1F
100
AcDbEntity
  8
0
  6
Continuous
 62
     7
370
     5
100
AcDbLine
 10
143.6581862317
 20
380.9276799569
 30
0.0
 11
143.6581862317
 21
382.8276799569
 31
0.0
  0
LINE
  5
459
330
1F
100
AcDbEntity
  8
0
  6
Continuous
 62
     7
370
     5
100
AcDbLine
 10
143.6581862317
 20
382.8276799569
 30
0.0
 11
138.5581862317
 21
382.8276799569
 31
0.0
  0
LINE
  5
45A
330
1F
100
AcDbEntity
  8
0
  6
Continuous
 62
     7
370
     5
100
AcDbLine
 10
138.5581862317
 20
382.8276799569
 30
0.0
 11
138.5581862317
 21
380.9276799569
 31
0.0
  0
LINE
  5
45B
330
1F
100
AcDbEntity
  8
0
  6
Continuous
 62
     7
370
     5
100
AcDbLine
 10
138.5581862317
 20
380.9276799569
 30
0.0
 11
130.5581862317
 21
380.9276799569
 31
0.0
  0
LINE
  5
45C
330
1F
100
AcDbEntity
  8
0
  6
Continuous
 62
     7
370
     5
100
AcDbLine
 10
130.5581862317
 20
394.3276799569
 30
0.0
 11
130.5581862317
 21
380.9276799569
 31
0.0
  0
LINE
  5
45D
330
1F
100
AcDbEntity
  8
0
  6
Continuous
 62
     7
370
     5
100
AcDbLine
 10
124.5581862317
 20
394.3276799569
 30
0.0
 11
130.5581862317
 21
394.3276799569
 31
0.0
  0
LINE
  5
45E
330
1F
100
AcDbEntity
  8
0
  6
Continuous
 62
     7
370
     5
100
AcDbLine
 10
124.5581862317
 20
394.3276799569
 30
0.0
 11
124.5581862317
 21
404.3276799569
 31
0.0
  0
LINE
  5
45F
330
1F
100
AcDbEntity
  8
0
  6
Continuous
 62
     7
370
     5
100
AcDbLine
 10
157.9581862317
 20
404.3276799569
 30
0.0
 11
124.5581862317
 21
404.3276799569
 31
0.0
  0
LINE
  5
460
330
1F
100
AcDbEntity
  8
0
  6
Continuous
 62
     7
370
     5
100
AcDbLine
 10
157.9581862317
 20
404.3276799569
 30
0.0
 11
157.9581862317
 21
396.3276799569
 31
0.0
  0
LINE
  5
461
330
1F
100
AcDbEntity
  8
0
  6
Continuous
 62
     7
370
     5
100
AcDbLine
 10
157.9581862317
 20
396.3276799569
 30
0.0
 11
156.0581862317
 21
396.3276799569
 31
0.0
  0
LINE
  5
462
330
1F
100
AcDbEntity
  8
0
  6
Continuous
 62
     7
370
     5
100
AcDbLine
 10
156.0581862317
 20
396.3276799569
 30
0.0
 11
156.0581862317
 21
391.2276799569
 31
0.0
  0
LINE
  5
463
330
1F
100
AcDbEntity
  8
0
  6
Continuous
 62
     7
370
     5
100
AcDbLine
 10
156.0581862317
 20
391.2276799569
 30
0.0
 11
157.9581862317
 21
391.2276799569
 31
0.0
  0
LINE
  5
464
330
1F
100
AcDbEntity
  8
0
  6
Continuous
 62
     7
370
     5
100
AcDbLine
 10
157.9581862317
 20
391.2276799569
 30
0.0
 11
157.9581862317
 21
387.2276799569
 31
0.0
  0
LINE
  5
465
330
1F
100
AcDbEntity
  8
0
  6
Continuous
 62
     7
370
     5
100
AcDbLine
 10
157.9581862317
 20
387.2276799569
 30
0.0
 11
161.1581862317
 21
387.2276799569
 31
0.0
  0
LINE
  5
466
330
1F
100
AcDbEntity
  8
0
  6
Continuous
 62
     7
370
     5
100
AcDbLine
 10
161.1581862317
 20
387.2276799569
 30
0.0
 11
161.1581862317
 21
391.2276799569
 31
0.0
  0
LINE
  5
467
330
1F
100
AcDbEntity
  8
0
  6
Continuous
 62
     7
370
     5
100
AcDbLine
 10
161.1581862317
 20
391.2276799569
 30
0.0
 11
163.0581862317
 21
391.2276799569
 31
0.0
  0
LINE
  5
468
330
1F
100
AcDbEntity
  8
0
  6
Continuous
 62
     7
370
     5
100
AcDbLine
 10
163.0581862317
 20
391.2276799569
 30
0.0
 11
163.0581862317
 21
396.3276799569
 31
0.0
  0
LINE
  5
469
330
1F
100
AcDbEntity
  8
0
  6
Continuous
 62
     7
370
     5
100
AcDbLine
 10
161.1581862317
 20
396.3276799569
 30
0.0
 11
161.1581862317
 21
404.3276799569
 31
0.0
  0
LINE
  5
46A
330
1F
100
AcDbEntity
  8
0
  6
Continuous
 62
     7
370
     5
100
AcDbLine
 10
188.5581862317
 20
404.3276799569
 30
0.0
 11
161.1581862317
 21
404.3276799569
 31
0.0
  0
LINE
  5
46B
330
1F
100
AcDbEntity
  8
0
  6
Continuous
 62
     7
370
     5
100
AcDbLine
 10
307.8229511804
 20
367.9846199134
 30
0.0
 11
305.9229511804
 21
367.9846199134
 31
0.0
  0
LINE
  5
46C
330
1F
100
AcDbEntity
  8
0
  6
Continuous
 62
     7
370
     5
100
AcDbLine
 10
333.3229511804
 20
360.9846199134
 30
0.0
 11
333.3229511804
 21
375.9846199134
 31
0.0
  0
LINE
  5
46D
330
1F
100
AcDbEntity
  8
0
  6
Continuous
 62
     7
370
     5
100
AcDbLine
 10
290.3229511804
 20
335.9846199134
 30
0.0
 11
333.3229511804
 21
360.9846199134
 31
0.0
  0
LINE
  5
46E
330
1F
100
AcDbEntity
  8
0
  6
Continuous
 62
     7
370
     5
100
AcDbLine
 10
275.3229511804
 20
335.9846199134
 30
0.0
 11
290.3229511804
 21
335.9846199134
 31
0.0
  0
LINE
  5
46F
330
1F
100
AcDbEntity
  8
0
  6
Continuous
 62
     7
370
     5
100
AcDbLine
 10
275.3229511804
 20
349.3846199134
 30
0.0
 11
275.3229511804
 21
335.9846199134
 31
0.0
  0
LINE
  5
470
330
1F
100
AcDbEntity
  8
0
  6
Continuous
 62
     7
370
     5
100
AcDbLine
 10
275.3229511804
 20
349.3846199134
 30
0.0
 11
283.3229511804
 21
349.3846199134
 31
0.0
  0
LINE
  5
471
330
1F
100
AcDbEntity
  8
0
  6
Continuous
 62
     7
370
     5
100
AcDbLine
 10
283.3229511804
 20
349.3846199134
 30
0.0
 11
283.3229511804
 21
347.4846199134
 31
0.0
  0
LINE
  5
472
330
1F
100
AcDbEntity
  8
0
  6
Continuous
 62
     7
370
     5
100
AcDbLine
 10
283.3229511804
 20
347.4846199134
 30
0.0
 11
288.4229511804
 21
347.4846199134
 31
0.0
  0
LINE
  5
473
330
1F
100
AcDbEntity
  8
0
  6
Continuous
 62
     7
370
     5
100
AcDbLine
 10
288.4229511804
 20
347.4846199134
 30
0.0
 11
288.4229511804
 21
349.3846199134
 31
0.0
  0
LINE
  5
474
330
1F
100
AcDbEntity
  8
0
  6
Continuous
 62
     7
370
     5
100
AcDbLine
 10
288.4229511804
 20
349.3846199134
 30
0.0
 11
292.4229511804
 21
349.3846199134
 31
0.0
  0
LINE
  5
475
330
1F
100
AcDbEntity
  8
0
  6
Continuous
 62
     7
370
     5
100
AcDbLine
 10
292.4229511804
 20
349.3846199134
 30
0.0
 11
292.4229511804
 21
352.5846199134
 31
0.0
  0
LINE
  5
476
330
1F
100
AcDbEntity
  8
0
  6
Continuous
 62
     7
370
     5
100
AcDbLine
 10
292.4229511804
 20
352.5846199134
 30
0.0
 11
288.4229511804
 21
352.5846199134
 31
0.0
  0
LINE
  5
477
330
1F
100
AcDbEntity
  8
0
  6
Continuous
 62
     7
370
     5
100
AcDbLine
 10
288.4229511804
 20
352.5846199134
 30
0.0
 11
288.4229511804
 21
354.4846199134
 31
0.0
  0
LINE
  5
478
330
1F
100
AcDbEntity
  8
0
  6
Continuous
 62
     7
370
     5
100
AcDbLine
 10
288.4229511804
 20
354.4846199134
 30
0.0
 11
283.3229511804
 21
354.4846199134
 31
0.0
  0
LINE
  5
479
330
1F
100
AcDbEntity
  8
0
  6
Continuous
 62
     7
370
     5
100
AcDbLine
 10
283.3229511804
 20
354.4846199134
 30
0.0
 11
283.3229511804
 21
352.5846199134
 31
0.0
  0
LINE
  5
47A
330
1F
100
AcDbEntity
  8
0
  6
Continuous
 62
     7
370
     5
100
AcDbLine
 10
283.3229511804
 20
352.5846199134
 30
0.0
 11
275.3229511804
 21
352.5846199134
 31
0.0
  0
LINE
  5
47B
330
1F
100
AcDbEntity
  8
0
  6
Continuous
 62
     7
370
     5
100
AcDbLine
 10
275.3229511804
 20
365.9846199134
 30
0.0
 11
275.3229511804
 21
352.5846199134
 31
0.0
  0
LINE
  5
47C
330
1F
100
AcDbEntity
  8
0
  6
Continuous
 62
     7
370
     5
100
AcDbLine
 10
269.3229511804
 20
365.9846199134
 30
0.0
 11
275.3229511804
 21
365.9846199134
 31
0.0
  0
LINE
  5
47D
330
1F
100
AcDbEntity
  8
0
  6
Continuous
 62
     7
370
     5
100
AcDbLine
 10
269.3229511804
 20
365.9846199134
 30
0.0
 11
269.3229511804
 21
375.9846199134
 31
0.0
  0
LINE
  5
47E
330
1F
100
AcDbEntity
  8
0
  6
Continuous
 62
     7
370
     5
100
AcDbLine
 10
302.7229511804
 20
375.9846199134
 30
0.0
 11
269.3229511804
 21
375.9846199134
 31
0.0
  0
LINE
  5
47F
330
1F
100
AcDbEntity
  8
0
  6
Continuous
 62
     7
370
     5
100
AcDbLine
 10
302.7229511804
 20
375.9846199134
 30
0.0
 11
302.7229511804
 21
367.9846199134
 31
0.0
  0
LINE
  5
480
330
1F
100
AcDbEntity
  8
0
  6
Continuous
 62
     7
370
     5
100
AcDbLine
 10
302.7229511804
 20
367.9846199134
 30
0.0
 11
300.8229511804
 21
367.9846199134
 31
0.0
  0
LINE
  5
481
330
1F
100
AcDbEntity
  8
0
  6
Continuous
 62
     7
370
     5
100
AcDbLine
 10
300.8229511804
 20
367.9846199134
 30
0.0
 11
300.8229511804
 21
362.8846199134
 31
0.0
  0
LINE
  5
482
330
1F
100
AcDbEntity
  8
0
  6
Continuous
 62
     7
370
     5
100
AcDbLine
 10
300.8229511804
 20
362.8846199134
 30
0.0
 11
302.7229511804
 21
362.8846199134
 31
0.0
  0
LINE
  5
483
330
1F
100
AcDbEntity
  8
0
  6
Continuous
 62
     7
370
     5
100
AcDbLine
 10
302.7229511804
 20
362.8846199134
 30
0.0
 11
302.7229511804
 21
358.8846199134
 31
0.0
  0
LINE
  5
484
330
1F
100
AcDbEntity
  8
0
  6
Continuous
 62
     7
370
     5
100
AcDbLine
 10
302.7229511804
 20
358.8846199134
 30
0.0
 11
305.9229511804
 21
358.8846199134
 31
0.0
  0
LINE
  5
485
330
1F
100
AcDbEntity
  8
0
  6
Continuous
 62
     7
370
     5
100
AcDbLine
 10
305.9229511804
 20
358.8846199134
 30
0.0
 11
305.9229511804
 21
362.8846199134
 31
0.0
  0
LINE
  5
486
330
1F
100
AcDbEntity
  8
0
  6
Continuous
 62
     7
370
     5
100
AcDbLine
 10
305.9229511804
 20
362.8846199134
 30
0.0
 11
307.8229511804
 21
362.8846199134
 31
0.0
  0
LINE
  5
487
330
1F
100
AcDbEntity
  8
0
  6
Continuous
 62
     7
370
     5
100
AcDbLine
 10
307.8229511804
 20
362.8846199134
 30
0.0
 11
307.8229511804
 21
367.9846199134
 31
0.0
  0
LINE
  5
488
330
1F
100
AcDbEntity
  8
0
  6
Continuous
 62
     7
370
     5
100
AcDbLine
 10
305.9229511804
 20
367.9846199134
 30
0.0
 11
305.9229511804
 21
375.9846199134
 31
0.0
  0
LINE
  5
489
330
1F
100
AcDbEntity
  8
0
  6
Continuous
 62
     7
370
     5
100
AcDbLine
 10
333.3229511804
 20
375.9846199134
 30
0.0
 11
305.9229511804
 21
375.9846199134
 31
0.0
  0
LINE
  5
48A
330
1F
100
AcDbEntity
  8
0
  6
Continuous
 62
     7
370
     5
100
AcDbLine
 10
301.7792123764
 20
428.248834838
 30
0.0
 11
301.7792123764
 21
481.2169475018
 31
0.0
  0
LINE
  5
48B
330
1F
100
AcDbEntity
  8
0
  6
Continuous
 62
     7
370
     5
100
AcDbLine
 10
354.9792123764
 20
436.0169475018
 30
0.0
 11
354.9792123764
 21
446.4169475018
 31
0.0
  0
LINE
  5
48C
330
1F
100
AcDbEntity
  8
0
  6
Continuous
 62
     7
370
     5
100
AcDbLine
 10
348.4792123764
 20
151.7030330176
 30
0.0
 11
348.4792123764
 21
393.730861986
 31
0.0
  0
LINE
  5
48D
330
1F
100
AcDbEntity
  8
0
  6
Continuous
 62
     7
370
     5
100
AcDbLine
 10
307.553029759
 20
419.1857569676
 30
0.0
 11
342.7053949938
 21
402.7939398563
 31
0.0
  0
LINE
  5
48E
330
1F
100
AcDbEntity
  8
0
  6
Continuous
 62
     7
370
     5
100
AcDbLine
 10
383.1792123764
 20
135.0985824053
 30
0.0
 11
383.1792123764
 21
410.3353125983
 31
0.0
  0
LINE
  5
48F
330
1F
100
AcDbEntity
  8
0
  6
Continuous
 62
     7
370
     5
100
AcDbLine
 10
354.9792123764
 20
109.4169475018
 30
0.0
 11
354.9792123764
 21
99.0169475018
 31
0.0
  0
LINE
  5
490
330
1F
100
AcDbEntity
  8
0
  6
Continuous
 62
     7
370
     5
100
AcDbLine
 10
348.5792123764
 20
109.4169475018
 30
0.0
 11
354.9792123764
 21
109.4169475018
 31
0.0
  0
LINE
  5
491
330
1F
100
AcDbEntity
  8
0
  6
Continuous
 62
     7
370
     5
100
AcDbLine
 10
348.5792123764
 20
99.0169475018
 30
0.0
 11
348.5792123764
 21
109.4169475018
 31
0.0
  0
LINE
  5
492
330
1F
100
AcDbEntity
  8
0
  6
Continuous
 62
     7
370
     5
100
AcDbLine
 10
354.9792123764
 20
99.0169475018
 30
0.0
 11
348.5792123764
 21
99.0169475018
 31
0.0
  0
LINE
  5
493
330
1F
100
AcDbEntity
  8
0
  6
Continuous
 62
     7
370
     5
100
AcDbLine
 10
352.3804071154
 20
486.2169475018
 30
0.0
 11
306.7792123764
 21
486.2169475018
 31
0.0
  0
LINE
  5
494
330
1F
100
AcDbEntity
  8
0
  6
Continuous
 62
     7
370
     5
100
AcDbLine
 10
382.8776754803
 20
412.0454133149
 30
0.0
 11
357.0788702193
 21
482.9270482184
 31
0.0
  0
LINE
  5
495
330
1F
100
AcDbEntity
  8
0
  6
Continuous
 62
     7
370
     5
100
AcDbLine
 10
357.0788702193
 20
62.5068467852
 30
0.0
 11
382.8776754803
 21
133.3884816887
 31
0.0
  0
LINE
  5
496
330
1F
100
AcDbEntity
  8
0
  6
Continuous
 62
     7
370
     5
100
AcDbLine
 10
306.7792123764
 20
59.2169475018
 30
0.0
 11
352.3804071154
 21
59.2169475018
 31
0.0
  0
LINE
  5
497
330
1F
100
AcDbEntity
  8
0
  6
Continuous
 62
     7
370
     5
100
AcDbLine
 10
301.7792123764
 20
117.1850601656
 30
0.0
 11
301.7792123764
 21
64.2169475018
 31
0.0
  0
LINE
  5
498
330
1F
100
AcDbEntity
  8
0
  6
Continuous
 62
     7
370
     5
100
AcDbLine
 10
342.7053949938
 20
142.6399551473
 30
0.0
 11
307.553029759
 21
126.248138036
 31
0.0
  0
LINE
  5
499
330
1F
100
AcDbEntity
  8
0
  6
Continuous
 62
     7
370
     5
100
AcDbLine
 10
348.5792123764
 20
436.0169475018
 30
0.0
 11
354.9792123764
 21
436.0169475018
 31
0.0
  0
LINE
  5
49A
330
1F
100
AcDbEntity
  8
0
  6
Continuous
 62
     7
370
     5
100
AcDbLine
 10
354.9792123764
 20
446.4169475018
 30
0.0
 11
348.5792123764
 21
446.4169475018
 31
0.0
  0
LINE
  5
49B
330
1F
100
AcDbEntity
  8
0
  6
Continuous
 62
     7
370
     5
100
AcDbLine
 10
348.5792123764
 20
446.4169475018
 30
0.0
 11
348.5792123764
 21
436.0169475018
 31
0.0
  0
LINE
  5
49C
330
1F
100
AcDbEntity
  8
0
  6
Continuous
 62
     7
370
     5
100
AcDbLine
 10
28.9611142832
 20
410.9150587756
 30
0.0
 11
-29.0388857168
 21
410.9150587756
 31
0.0
  0
LINE
  5
49D
330
1F
100
AcDbEntity
  8
0
  6
Continuous
 62
     7
370
     5
100
AcDbLine
 10
28.9611142832
 20
352.9150587756
 30
0.0
 11
28.9611142832
 21
410.9150587756
 31
0.0
  0
LINE
  5
49E
330
1F
100
AcDbEntity
  8
0
  6
Continuous
 62
     7
370
     5
100
AcDbLine
 10
-29.0388857168
 20
352.9150587756
 30
0.0
 11
28.9611142832
 21
352.9150587756
 31
0.0
  0
LINE
  5
49F
330
1F
100
AcDbEntity
  8
0
  6
Continuous
 62
     7
370
     5
100
AcDbLine
 10
-29.0388857168
 20
410.9150587756
 30
0.0
 11
-29.0388857168
 21
352.9150587756
 31
0.0
  0
LINE
  5
4A0
330
1F
100
AcDbEntity
  8
0
  6
Continuous
 62
     7
370
     5
100
AcDbLine
 10
48.6263313395
 20
410.5414464588
 30
0.0
 11
48.6263313395
 21
352.5414464588
 31
0.0
  0
LINE
  5
4A1
330
1F
100
AcDbEntity
  8
0
  6
Continuous
 62
     7
370
     5
100
AcDbLine
 10
106.6263313395
 20
352.5414464588
 30
0.0
 11
106.6263313395
 21
410.5414464588
 31
0.0
  0
LINE
  5
4A2
330
1F
100
AcDbEntity
  8
0
  6
Continuous
 62
     7
370
     5
100
AcDbLine
 10
48.6263313395
 20
352.5414464588
 30
0.0
 11
106.6263313395
 21
352.5414464588
 31
0.0
  0
LINE
  5
4A3
330
1F
100
AcDbEntity
  8
0
  6
Continuous
 62
     7
370
     5
100
AcDbLine
 10
106.6263313395
 20
410.5414464588
 30
0.0
 11
48.6263313395
 21
410.5414464588
 31
0.0
  0
ARC
  5
4A4
330
1F
100
AcDbEntity
  8
0
  6
Continuous
 62
     7
370
     5
100
AcDbCircle
 10
-374.6764247987
 20
451.2018545956
 30
0.0
 40
4.000000000000008
100
AcDbArc
 50
270.0
 51
89.2647026135
  0
ARC
  5
4A5
330
1F
100
AcDbEntity
  8
0
  6
Continuous
 62
     7
370
     5
100
AcDbCircle
 10
-382.5817190463
 20
451.2004540329
 30
0.0
 40
4.00000000000007
100
AcDbArc
 50
91.5162526632
 51
268.4837473368
  0
ARC
  5
4A6
330
1F
100
AcDbEntity
  8
0
  6
Continuous
 62
     7
370
     5
100
AcDbCircle
 10
-185.8674585139
 20
95.4703067062
 30
0.0
 40
4.000000000000008
100
AcDbArc
 50
90.0
 51
269.2647026135
  0
ARC
  5
4A7
330
1F
100
AcDbEntity
  8
0
  6
Continuous
 62
     7
370
     5
100
AcDbCircle
 10
-177.9621642663
 20
95.4717072689
 30
0.0
 40
4.000000000000001
100
AcDbArc
 50
271.5162526632001
 51
88.4837473368
  0
ARC
  5
4A8
330
1F
100
AcDbEntity
  8
0
  6
Continuous
 62
     7
370
     5
100
AcDbCircle
 10
245.0842735577
 20
101.9733456673
 30
0.0
 40
3.000000000000028
100
AcDbArc
 50
90.0
 51
270.0
  0
ARC
  5
4A9
330
1F
100
AcDbEntity
  8
0
  6
Continuous
 62
     7
370
     5
100
AcDbCircle
 10
257.0842735577
 20
101.9733456673
 30
0.0
 40
3.000000000000028
100
AcDbArc
 50
270.0
 51
90.0
  0
ARC
  5
4AA
330
1F
100
AcDbEntity
  8
0
  6
Continuous
 62
     7
370
     5
100
AcDbCircle
 10
-99.9157264423
 20
101.9733456673
 30
0.0
 40
3.000000000000014
100
AcDbArc
 50
270.0
 51
90.0
  0
ARC
  5
4AB
330
1F
100
AcDbEntity
  8
0
  6
Continuous
 62
     7
370
     5
100
AcDbCircle
 10
-111.9157264423
 20
101.9733456673
 30
0.0
 40
3.000000000000043
100
AcDbArc
 50
90.0
 51
270.0
  0
ARC
  5
4AC
330
1F
100
AcDbEntity
  8
0
  6
Continuous
 62
     7
370
     5
100
AcDbCircle
 10
-12.4591891106
 20
106.9895410663
 30
0.0
 40
4.996191640813074
100
AcDbArc
 50
181.1582475295
 51
358.8417524705
  0
ARC
  5
4AD
330
1F
100
AcDbEntity
  8
0
  6
Continuous
 62
     7
370
     5
100
AcDbCircle
 10
157.5021774064
 20
106.8885487673
 30
0.0
 40
5.120729634398515
100
AcDbArc
 50
180.0
 51
0.0
  0
ARC
  5
4AE
330
1F
100
AcDbEntity
  8
0
  6
Continuous
 62
     7
370
     5
100
AcDbCircle
 10
179.7590602449
 20
341.9288380192
 30
0.0
 40
5.0
100
AcDbArc
 50
0.0
 51
90.0
  0
ARC
  5
4AF
330
1F
100
AcDbEntity
  8
0
  6
Continuous
 62
     7
370
     5
100
AcDbCircle
 10
159.7590602449
 20
222.4288380192
 30
0.0
 40
5.250000000000057
100
AcDbArc
 50
180.0
 51
0.0
  0
ARC
  5
4B0
330
1F
100
AcDbEntity
  8
0
  6
Continuous
 62
     7
370
     5
100
AcDbCircle
 10
159.7590602449
 20
247.4288380192
 30
0.0
 40
5.250000000000028
100
AcDbArc
 50
0.0
 51
180.0
  0
ARC
  5
4B1
330
1F
100
AcDbEntity
  8
0
  6
Continuous
 62
     7
370
     5
100
AcDbCircle
 10
-14.2409397551
 20
257.4288380192
 30
0.0
 40
5.25
100
AcDbArc
 50
180.0
 51
0.0
  0
ARC
  5
4B2
330
1F
100
AcDbEntity
  8
0
  6
Continuous
 62
     7
370
     5
100
AcDbCircle
 10
-14.2409397551
 20
282.4288380192
 30
0.0
 40
5.25
100
AcDbArc
 50
0.0
 51
180.0
  0
ARC
  5
4B3
330
1F
100
AcDbEntity
  8
0
  6
Continuous
 62
     7
370
     5
100
AcDbCircle
 10
-34.2409397551
 20
127.9288380192
 30
0.0
 40
5.0
100
AcDbArc
 50
180.0
 51
270.0
  0
ARC
  5
4B4
330
1F
100
AcDbEntity
  8
0
  6
Continuous
 62
     7
370
     5
100
AcDbCircle
 10
-34.2409397551
 20
341.9288380192
 30
0.0
 40
5.0
100
AcDbArc
 50
90.0
 51
180.0
  0
ARC
  5
4B5
330
1F
100
AcDbEntity
  8
0
  6
Continuous
 62
     7
370
     5
100
AcDbCircle
 10
179.7590602449
 20
127.9288380192
 30
0.0
 40
5.0
100
AcDbArc
 50
270.0
 51
0.0
  0
ARC
  5
4B6
330
1F
100
AcDbEntity
  8
0
  6
Continuous
 62
     7
370
     5
100
AcDbCircle
 10
-14.2409397551
 20
187.4288380192
 30
0.0
 40
5.250000000000005
100
AcDbArc
 50
180.0
 51
0.0
  0
ARC
  5
4B7
330
1F
100
AcDbEntity
  8
0
  6
Continuous
 62
     7
370
     5
100
AcDbCircle
 10
-14.2409397551
 20
212.4288380192
 30
0.0
 40
5.250000000000005
100
AcDbArc
 50
0.0
 51
180.0
  0
ARC
  5
4B8
330
1F
100
AcDbEntity
  8
0
  6
Continuous
 62
     7
370
     5
100
AcDbCircle
 10
-24.2409397551
 20
269.9288380192
 30
0.0
 40
1.899999999999977
100
AcDbArc
 50
270.0
 51
90.0
  0
ARC
  5
4B9
330
1F
100
AcDbEntity
  8
0
  6
Continuous
 62
     7
370
     5
100
AcDbCircle
 10
-29.2409397551
 20
269.9288380192
 30
0.0
 40
1.900000000000034
100
AcDbArc
 50
90.0
 51
270.0
  0
ARC
  5
4BA
330
1F
100
AcDbEntity
  8
0
  6
Continuous
 62
     7
370
     5
100
AcDbCircle
 10
-4.2409397551
 20
269.9288380192
 30
0.0
 40
1.900000000000034
100
AcDbArc
 50
90.0
 51
270.0
  0
ARC
  5
4BB
330
1F
100
AcDbEntity
  8
0
  6
Continuous
 62
     7
370
     5
100
AcDbCircle
 10
0.7590602449
 20
269.9288380192
 30
0.0
 40
1.899999999999977
100
AcDbArc
 50
270.0
 51
90.0
  0
ARC
  5
4BC
330
1F
100
AcDbEntity
  8
0
  6
Continuous
 62
     7
370
     5
100
AcDbCircle
 10
169.7590602449
 20
234.9288380192
 30
0.0
 40
1.900000000000006
100
AcDbArc
 50
90.0
 51
270.0
  0
ARC
  5
4BD
330
1F
100
AcDbEntity
  8
0
  6
Continuous
 62
     7
370
     5
100
AcDbCircle
 10
174.7590602449
 20
234.9288380192
 30
0.0
 40
1.900000000000006
100
AcDbArc
 50
270.0
 51
90.0
  0
ARC
  5
4BE
330
1F
100
AcDbEntity
  8
0
  6
Continuous
 62
     7
370
     5
100
AcDbCircle
 10
-24.2409397551
 20
199.9288380192
 30
0.0
 40
1.900000000000034
100
AcDbArc
 50
270.0
 51
90.0
  0
ARC
  5
4BF
330
1F
100
AcDbEntity
  8
0
  6
Continuous
 62
     7
370
     5
100
AcDbCircle
 10
-29.2409397551
 20
199.9288380192
 30
0.0
 40
1.900000000000034
100
AcDbArc
 50
90.0
 51
270.0
  0
ARC
  5
4C0
330
1F
100
AcDbEntity
  8
0
  6
Continuous
 62
     7
370
     5
100
AcDbCircle
 10
-4.2409397551
 20
199.9288380192
 30
0.0
 40
1.900000000000034
100
AcDbArc
 50
90.0
 51
270.0
  0
ARC
  5
4C1
330
1F
100
AcDbEntity
  8
0
  6
Continuous
 62
     7
370
     5
100
AcDbCircle
 10
0.7590602449
 20
199.9288380192
 30
0.0
 40
1.900000000000034
100
AcDbArc
 50
270.0
 51
90.0
  0
ARC
  5
4C2
330
1F
100
AcDbEntity
  8
0
  6
Continuous
 62
     7
370
     5
100
AcDbCircle
 10
149.7590602449
 20
234.9288380192
 30
0.0
 40
1.900000000000006
100
AcDbArc
 50
270.0
 51
90.0
  0
ARC
  5
4C3
330
1F
100
AcDbEntity
  8
0
  6
Continuous
 62
     7
370
     5
100
AcDbCircle
 10
144.7590602449
 20
234.9288380192
 30
0.0
 40
1.900000000000006
100
AcDbArc
 50
90.0
 51
270.0
  0
ARC
  5
4C4
330
1F
100
AcDbEntity
  8
0
  6
Continuous
 62
     7
370
     5
100
AcDbCircle
 10
101.7978105499
 20
273.9288380192
 30
0.0
 40
1.999999999999909
100
AcDbArc
 50
270.0
 51
321.3401917459
  0
ARC
  5
4C5
330
1F
100
AcDbEntity
  8
0
  6
Continuous
 62
     7
370
     5
100
AcDbCircle
 10
138.5978105499
 20
319.9288380192
 30
0.0
 40
2.000000000000049
100
AcDbArc
 50
321.3401917459
 51
90.0
  0
ARC
  5
4C6
330
1F
100
AcDbEntity
  8
0
  6
Continuous
 62
     7
370
     5
100
AcDbCircle
 10
6.9203099399
 20
319.9288380192
 30
0.0
 40
2.000000000000013
100
AcDbArc
 50
90.0
 51
218.6598082541
  0
ARC
  5
4C7
330
1F
100
AcDbEntity
  8
0
  6
Continuous
 62
     7
370
     5
100
AcDbCircle
 10
43.7203099399
 20
273.9288380192
 30
0.0
 40
1.999999999999773
100
AcDbArc
 50
218.6598082541
 51
270.0
  0
ARC
  5
4C8
330
1F
100
AcDbEntity
  8
0
  6
Continuous
 62
     7
370
     5
100
AcDbCircle
 10
6.9203099399
 20
149.9288380192
 30
0.0
 40
2.000000000000012
100
AcDbArc
 50
141.3401917459
 51
270.0
  0
ARC
  5
4C9
330
1F
100
AcDbEntity
  8
0
  6
Continuous
 62
     7
370
     5
100
AcDbCircle
 10
138.5978105499
 20
149.9288380192
 30
0.0
 40
2.0
100
AcDbArc
 50
270.0
 51
38.6598082541
  0
ARC
  5
4CA
330
1F
100
AcDbEntity
  8
0
  6
Continuous
 62
     7
370
     5
100
AcDbCircle
 10
101.7978105499
 20
195.9288380192
 30
0.0
 40
2.000000000000114
100
AcDbArc
 50
38.6598082541
 51
90.0
  0
ARC
  5
4CB
330
1F
100
AcDbEntity
  8
0
  6
Continuous
 62
     7
370
     5
100
AcDbCircle
 10
43.7203099399
 20
195.9288380192
 30
0.0
 40
2.000000000000114
100
AcDbArc
 50
90.0
 51
141.3401917459
  0
ARC
  5
4CC
330
1F
100
AcDbEntity
  8
0
  6
Continuous
 62
     7
370
     5
100
AcDbCircle
 10
338.4792123764
 20
393.730861986
 30
0.0
 40
9.999999999999977
100
AcDbArc
 50
0.0
 51
65.0
  0
ARC
  5
4CD
330
1F
100
AcDbEntity
  8
0
  6
Continuous
 62
     7
370
     5
100
AcDbCircle
 10
338.4792123764
 20
151.7030330176
 30
0.0
 40
9.999999999999972
100
AcDbArc
 50
295.0000000000001
 51
0.0
  0
ARC
  5
4CE
330
1F
100
AcDbEntity
  8
0
  6
Continuous
 62
     7
370
     5
100
AcDbCircle
 10
311.7792123764
 20
428.248834838
 30
0.0
 40
9.999999999999943
100
AcDbArc
 50
180.0
 51
245.0
  0
ARC
  5
4CF
330
1F
100
AcDbEntity
  8
0
  6
Continuous
 62
     7
370
     5
100
AcDbCircle
 10
306.7792123764
 20
481.2169475018
 30
0.0
 40
5.0
100
AcDbArc
 50
90.0
 51
180.0
  0
ARC
  5
4D0
330
1F
100
AcDbEntity
  8
0
  6
Continuous
 62
     7
370
     5
100
AcDbCircle
 10
352.3804071154
 20
481.2169475018
 30
0.0
 40
5.000000000000057
100
AcDbArc
 50
20.0
 51
90.0
  0
ARC
  5
4D1
330
1F
100
AcDbEntity
  8
0
  6
Continuous
 62
     7
370
     5
100
AcDbCircle
 10
378.1792123764
 20
410.3353125983
 30
0.0
 40
5.000000000000398
100
AcDbArc
 50
0.0
 51
20.0
  0
ARC
  5
4D2
330
1F
100
AcDbEntity
  8
0
  6
Continuous
 62
     7
370
     5
100
AcDbCircle
 10
378.1792123764
 20
135.0985824053
 30
0.0
 40
5.000000000001137
100
AcDbArc
 50
340.0000000000001
 51
360.0
  0
ARC
  5
4D3
330
1F
100
AcDbEntity
  8
0
  6
Continuous
 62
     7
370
     5
100
AcDbCircle
 10
352.3804071154
 20
64.2169475018
 30
0.0
 40
4.999999999999915
100
AcDbArc
 50
270.0
 51
340.0000000000001
  0
ARC
  5
4D4
330
1F
100
AcDbEntity
  8
0
  6
Continuous
 62
     7
370
     5
100
AcDbCircle
 10
306.7792123764
 20
64.2169475018
 30
0.0
 40
5.000000000000007
100
AcDbArc
 50
180.0
 51
270.0
  0
ARC
  5
4D5
330
1F
100
AcDbEntity
  8
0
  6
Continuous
 62
     7
370
     5
100
AcDbCircle
 10
311.7792123764
 20
117.1850601656
 30
0.0
 40
10.0
100
AcDbArc
 50
115.0
 51
180.0
  0
ENDSEC
  0
SECTION
  2
OBJECTS
  0
DICTIONARY
  5
C
330
0
100
AcDbDictionary
281
     1
  3
ACAD_GROUP
350
D
  3
ACAD_IMAGE_VARS
350
4F7
  3
ACAD_LAYOUT
350
1A
  3
ACAD_MLINESTYLE
350
17
  3
ACAD_PLOTSETTINGS
350
19
  3
ACAD_PLOTSTYLENAME
350
E
  3
ACAD_SCALELIST
350
47
  3
APPDATA
350
4F5
  3
DWGPROPS
350
4F8
  0
DICTIONARY
  5
D
102
{ACAD_REACTORS
330
C
102
}
330
C
100
AcDbDictionary
281
     1
  0
RASTERVARIABLES
  5
4F7
102
{ACAD_REACTORS
330
C
102
}
330
C
100
AcDbRasterVariables
 90
        0
 70
     1
 71
     1
 72
     1
  0
DICTIONARY
  5
1A
102
{ACAD_REACTORS
330
C
102
}
330
C
100
AcDbDictionary
281
     1
  3
Layout1
350
1E
  3
Layout2
350
26
  3
Model
350
22
  0
DICTIONARY
  5
17
102
{ACAD_REACTORS
330
C
102
}
330
C
100
AcDbDictionary
281
     1
  3
Standard
350
18
  0
DICTIONARY
  5
19
102
{ACAD_REACTORS
330
C
102
}
330
C
100
AcDbDictionary
281
     1
  0
ACDBDICTIONARYWDFLT
  5
E
102
{ACAD_REACTORS
330
C
102
}
330
C
100
AcDbDictionary
281
     1
  3
Normal
350
F
100
AcDbDictionaryWithDefault
340
F
  0
DICTIONARY
  5
47
102
{ACAD_REACTORS
330
C
102
}
330
C
100
AcDbDictionary
281
     1
  3
A0
350
48
  3
A1
350
49
  3
A2
350
4A
  3
A3
350
4B
  3
A4
350
4C
  3
A5
350
4D
  3
A6
350
4E
  3
A7
350
4F
  3
A8
350
50
  3
A9
350
51
  3
B0
350
52
  3
B1
350
53
  3
B2
350
54
  3
B3
350
55
  3
B4
350
56
  3
B5
350
57
  3
B6
350
58
  3
B7
350
59
  3
B8
350
5A
  3
B9
350
5B
  3
C0
350
5C
  3
C1
350
5D
  3
C2
350
5E
  3
C3
350
5F
  3
C4
350
60
  3
C5
350
61
  3
C6
350
62
  3
C7
350
63
  3
C8
350
64
  3
C9
350
65
  3
D0
350
66
  3
D1
350
67
  3
D2
350
68
  0
DICTIONARY
  5
4F5
102
{ACAD_REACTORS
330
C
102
}
330
C
100
AcDbDictionary
281
     1
  0
XRECORD
  5
4F8
102
{ACAD_REACTORS
330
C
102
}
330
C
100
AcDbXrecord
280
     1
  1
DWGPROPS COOKIE
  2

  3

  4

  6

  7

  8
Mohamed Thalib H
  9

300
=
301
=
302
=
303
=
304
=
305
=
306
=
307
=
308
=
309
=
 40
0.0
 41
2457386.214796597
 42
2457386.215723322
  1

 90
        0
  0
LAYOUT
  5
1E
102
{ACAD_REACTORS
330
1A
102
}
330
1A
100
AcDbPlotSettings
  1

  2
none_device
  4

  6

 40
0.0
 41
0.0
 42
0.0
 43
0.0
 44
0.0
 45
0.0
 46
0.0
 47
0.0
 48
0.0
 49
0.0
140
0.0
141
0.0
142
1.0
143
1.0
 70
   688
 72
     1
 73
     0
 74
     5
  7

 75
    16
147
1.0
148
0.0
149
0.0
100
AcDbLayout
  1
Layout1
 70
     1
 71
     1
 10
0.0
 20
0.0
 11
420.0
 21
297.0
 12
0.0
 22
0.0
 32
0.0
 14
1.000000000000000E+20
 24
1.000000000000000E+20
 34
1.000000000000000E+20
 15
-1.000000000000000E+20
 25
-1.000000000000000E+20
 35
-1.000000000000000E+20
146
0.0
 13
0.0
 23
0.0
 33
0.0
 16
1.0
 26
0.0
 36
0.0
 17
0.0
 27
1.0
 37
0.0
 76
     0
330
1B
  0
LAYOUT
  5
26
102
{ACAD_REACTORS
330
1A
102
}
330
1A
100
AcDbPlotSettings
  1

  2
none_device
  4

  6

 40
0.0
 41
0.0
 42
0.0
 43
0.0
 44
0.0
 45
0.0
 46
0.0
 47
0.0
 48
0.0
 49
0.0
140
0.0
141
0.0
142
1.0
143
1.0
 70
   688
 72
     1
 73
     0
 74
     5
  7

 75
    16
147
1.0
148
0.0
149
0.0
100
AcDbLayout
  1
Layout2
 70
     1
 71
     2
 10
0.0
 20
0.0
 11
0.0
 21
0.0
 12
0.0
 22
0.0
 32
0.0
 14
0.0
 24
0.0
 34
0.0
 15
0.0
 25
0.0
 35
0.0
146
0.0
 13
0.0
 23
0.0
 33
0.0
 16
1.0
 26
0.0
 36
0.0
 17
0.0
 27
1.0
 37
0.0
 76
     0
330
23
  0
LAYOUT
  5
22
102
{ACAD_REACTORS
330
1A
102
}
330
1A
100
AcDbPlotSettings
  1

  2
none_device
  4
ANSI_A_(11.00_x_8.50_Inches)
  6

 40
6.35
 41
19.05
 42
6.35000508
 43
19.05000254
 44
279.4
 45
215.9
 46
137.7943240768
 47
-6.3701193312
 48
0.0
 49
0.0
140
0.0
141
0.0
142
0.0137534249
143
1.0
 70
  1696
 72
     0
 73
     0
 74
     0
  7

 75
     0
147
0.0179189148
148
-1300.4909072572
149
0.0
100
AcDbLayout
  1
Model
 70
     1
 71
     0
 10
0.0
 20
0.0
 11
420.0
 21
297.0
 12
0.0
 22
0.0
 32
0.0
 14
-408.6235639383
 24
59.2169475018
 34
0.0
 15
383.1792123764
 25
486.2169475018
 35
0.0
146
0.0
 13
0.0
 23
0.0
 33
0.0
 16
1.0
 26
0.0
 36
0.0
 17
0.0
 27
1.0
 37
0.0
 76
     0
330
1F
331
29
  0
MLINESTYLE
  5
18
102
{ACAD_REACTORS
330
17
102
}
330
17
100
AcDbMlineStyle
  2
Standard
 70
     0
  3

 62
   256
 51
90.0
 52
90.0
 71
     2
 49
0.5
 62
   256
  6
BYLAYER
 49
-0.5
 62
   256
  6
BYLAYER
  0
ACDBPLACEHOLDER
  5
F
102
{ACAD_REACTORS
330
E
102
}
330
E
  0
SCALE
  5
48
102
{ACAD_REACTORS
330
47
102
}
330
47
100
AcDbScale
 70
     0
300
1:1
140
1.0
141
1.0
290
     1
  0
SCALE
  5
49
102
{ACAD_REACTORS
330
47
102
}
330
47
100
AcDbScale
 70
     0
300
1:2
140
1.0
141
2.0
290
     0
  0
SCALE
  5
4A
102
{ACAD_REACTORS
330
47
102
}
330
47
100
AcDbScale
 70
     0
300
1:4
140
1.0
141
4.0
290
     0
  0
SCALE
  5
4B
102
{ACAD_REACTORS
330
47
102
}
330
47
100
AcDbScale
 70
     0
300
1:5
140
1.0
141
5.0
290
     0
  0
SCALE
  5
4C
102
{ACAD_REACTORS
330
47
102
}
330
47
100
AcDbScale
 70
     0
300
1:8
140
1.0
141
8.0
290
     0
  0
SCALE
  5
4D
102
{ACAD_REACTORS
330
47
102
}
330
47
100
AcDbScale
 70
     0
300
1:10
140
1.0
141
10.0
290
     0
  0
SCALE
  5
4E
102
{ACAD_REACTORS
330
47
102
}
330
47
100
AcDbScale
 70
     0
300
1:16
140
1.0
141
16.0
290
     0
  0
SCALE
  5
4F
102
{ACAD_REACTORS
330
47
102
}
330
47
100
AcDbScale
 70
     0
300
1:20
140
1.0
141
20.0
290
     0
  0
SCALE
  5
50
102
{ACAD_REACTORS
330
47
102
}
330
47
100
AcDbScale
 70
     0
300
1:30
140
1.0
141
30.0
290
     0
  0
SCALE
  5
51
102
{ACAD_REACTORS
330
47
102
}
330
47
100
AcDbScale
 70
     0
300
1:40
140
1.0
141
40.0
290
     0
  0
SCALE
  5
52
102
{ACAD_REACTORS
330
47
102
}
330
47
100
AcDbScale
 70
     0
300
1:50
140
1.0
141
50.0
290
     0
  0
SCALE
  5
53
102
{ACAD_REACTORS
330
47
102
}
330
47
100
AcDbScale
 70
     0
300
1:100
140
1.0
141
100.0
290
     0
  0
SCALE
  5
54
102
{ACAD_REACTORS
330
47
102
}
330
47
100
AcDbScale
 70
     0
300
2:1
140
2.0
141
1.0
290
     0
  0
SCALE
  5
55
102
{ACAD_REACTORS
330
47
102
}
330
47
100
AcDbScale
 70
     0
300
4:1
140
4.0
141
1.0
290
     0
  0
SCALE
  5
56
102
{ACAD_REACTORS
330
47
102
}
330
47
100
AcDbScale
 70
     0
300
8:1
140
8.0
141
1.0
290
     0
  0
SCALE
  5
57
102
{ACAD_REACTORS
330
47
102
}
330
47
100
AcDbScale
 70
     0
300
10:1
140
10.0
141
1.0
290
     0
  0
SCALE
  5
58
102
{ACAD_REACTORS
330
47
102
}
330
47
100
AcDbScale
 70
     0
300
100:1
140
100.0
141
1.0
290
     0
  0
SCALE
  5
59
102
{ACAD_REACTORS
330
47
102
}
330
47
100
AcDbScale
 70
     0
300
1/128" = 1'-0"
140
0.0078125
141
12.0
290
     0
  0
SCALE
  5
5A
102
{ACAD_REACTORS
330
47
102
}
330
47
100
AcDbScale
 70
     0
300
1/64" = 1'-0"
140
0.015625
141
12.0
290
     0
  0
SCALE
  5
5B
102
{ACAD_REACTORS
330
47
102
}
330
47
100
AcDbScale
 70
     0
300
1/32" = 1'-0"
140
0.03125
141
12.0
290
     0
  0
SCALE
  5
5C
102
{ACAD_REACTORS
330
47
102
}
330
47
100
AcDbScale
 70
     0
300
1/16" = 1'-0"
140
0.0625
141
12.0
290
     0
  0
SCALE
  5
5D
102
{ACAD_REACTORS
330
47
102
}
330
47
100
AcDbScale
 70
     0
300
3/32" = 1'-0"
140
0.09375
141
12.0
290
     0
  0
SCALE
  5
5E
102
{ACAD_REACTORS
330
47
102
}
330
47
100
AcDbScale
 70
     0
300
1/8" = 1'-0"
140
0.125
141
12.0
290
     0
  0
SCALE
  5
5F
102
{ACAD_REACTORS
330
47
102
}
330
47
100
AcDbScale
 70
     0
300
3/16" = 1'-0"
140
0.1875
141
12.0
290
     0
  0
SCALE
  5
60
102
{ACAD_REACTORS
330
47
102
}
330
47
100
AcDbScale
 70
     0
300
1/4" = 1'-0"
140
0.25
141
12.0
290
     0
  0
SCALE
  5
61
102
{ACAD_REACTORS
330
47
102
}
330
47
100
AcDbScale
 70
     0
300
3/8" = 1'-0"
140
0.375
141
12.0
290
     0
  0
SCALE
  5
62
102
{ACAD_REACTORS
330
47
102
}
330
47
100
AcDbScale
 70
     0
300
1/2" = 1'-0"
140
0.5
141
12.0
290
     0
  0
SCALE
  5
63
102
{ACAD_REACTORS
330
47
102
}
330
47
100
AcDbScale
 70
     0
300
3/4" = 1'-0"
140
0.75
141
12.0
290
     0
  0
SCALE
  5
64
102
{ACAD_REACTORS
330
47
102
}
330
47
100
AcDbScale
 70
     0
300
1" = 1'-0"
140
1.0
141
12.0
290
     0
  0
SCALE
  5
65
102
{ACAD_REACTORS
330
47
102
}
330
47
100
AcDbScale
 70
     0
300
1-1/2" = 1'-0"
140
1.5
141
12.0
290
     0
  0
SCALE
  5
66
102
{ACAD_REACTORS
330
47
102
}
330
47
100
AcDbScale
 70
     0
300
3" = 1'-0"
140
3.0
141
12.0
290
     0
  0
SCALE
  5
67
102
{ACAD_REACTORS
330
47
102
}
330
47
100
AcDbScale
 70
     0
300
6" = 1'-0"
140
6.0
141
12.0
290
     0
  0
SCALE
  5
68
102
{ACAD_REACTORS
330
47
102
}
330
47
100
AcDbScale
 70
     0
300
1'-0" = 1'-0"
140
12.0
141
12.0
290
     0
  0
ENDSEC
  0
EOF
